Muli-Semi-Bold.ufo
<glyph name="exclam" format="1">
  <advance width="648"/>
  <unicode hex="0021"/>
  <outline>
    <contour>
      <point x="119" y="0" type="line"/>
      <point x="363" y="0" type="line"/>
      <point x="394" y="251" type="line"/>
      <point x="149" y="251" type="line"/>
    </contour>
    <contour>
      <point x="221" y="383" type="line"/>
      <point x="353" y="383" type="line"/>
      <point x="551" y="1456" type="line"/>
      <point x="286" y="1456" type="line"/>
    </contour>
  </outline>
</glyph>
<glyph name="quotedbl" format="1">
  <advance width="737"/>
  <unicode hex="0022"/>
  <outline>
    <contour>
      <point x="112" y="959" type="line"/>
      <point x="241" y="959" type="line"/>
      <point x="346" y="1456" type="line"/>
      <point x="124" y="1456" type="line"/>
    </contour>
    <contour>
      <point x="442" y="959" type="line"/>
      <point x="571" y="959" type="line"/>
      <point x="675" y="1456" type="line"/>
      <point x="454" y="1456" type="line"/>
    </contour>
  </outline>
</glyph>
<glyph name="percent" format="1">
  <advance width="1845"/>
  <unicode hex="0025"/>
  <outline>
    <contour>
      <point x="470" y="867" type="curve" smooth="yes"/>
      <point x="355" y="867"/>
      <point x="313" y="945"/>
      <point x="332" y="1100" type="curve" smooth="yes"/>
      <point x="350" y="1246"/>
      <point x="406" y="1334"/>
      <point x="528" y="1334" type="curve" smooth="yes"/>
      <point x="648" y="1334"/>
      <point x="683" y="1247"/>
      <point x="665" y="1101" type="curve" smooth="yes"/>
      <point x="647" y="946"/>
      <point x="585" y="867"/>
    </contour>
    <contour>
      <point x="452" y="723" type="curve" smooth="yes"/>
      <point x="675" y="723"/>
      <point x="828" y="869"/>
      <point x="857" y="1100" type="curve" smooth="yes"/>
      <point x="884" y="1326"/>
      <point x="770" y="1478"/>
      <point x="545" y="1478" type="curve" smooth="yes"/>
      <point x="321" y="1478"/>
      <point x="168" y="1324"/>
      <point x="140" y="1100" type="curve" smooth="yes"/>
      <point x="112" y="868"/>
      <point x="228" y="723"/>
    </contour>
    <contour>
      <point x="283" y="0" type="line"/>
      <point x="468" y="0" type="line"/>
      <point x="1573" y="1456" type="line"/>
      <point x="1386" y="1456" type="line"/>
    </contour>
    <contour>
      <point x="1318" y="122" type="curve" smooth="yes"/>
      <point x="1203" y="122"/>
      <point x="1161" y="199"/>
      <point x="1180" y="354" type="curve" smooth="yes"/>
      <point x="1198" y="500"/>
      <point x="1254" y="589"/>
      <point x="1376" y="589" type="curve" smooth="yes"/>
      <point x="1497" y="589"/>
      <point x="1532" y="502"/>
      <point x="1514" y="355" type="curve" smooth="yes"/>
      <point x="1495" y="201"/>
      <point x="1433" y="122"/>
    </contour>
    <contour>
      <point x="1300" y="-22" type="curve" smooth="yes"/>
      <point x="1523" y="-22"/>
      <point x="1678" y="141"/>
      <point x="1705" y="355" type="curve" smooth="yes"/>
      <point x="1730" y="564"/>
      <point x="1619" y="732"/>
      <point x="1394" y="732" type="curve" smooth="yes"/>
      <point x="1169" y="732"/>
      <point x="1014" y="563"/>
      <point x="989" y="355" type="curve" smooth="yes"/>
      <point x="962" y="140"/>
      <point x="1077" y="-22"/>
    </contour>
  </outline>
</glyph>
<glyph name="ampersand" format="1">
  <advance width="1567"/>
  <unicode hex="0026"/>
  <outline>
    <contour>
      <point x="536" y="-26" type="curve" smooth="yes"/>
      <point x="727" y="-26"/>
      <point x="885" y="58"/>
      <point x="1006" y="163" type="curve"/>
      <point x="1082" y="70"/>
      <point x="1151" y="6"/>
      <point x="1279" y="-15" type="curve"/>
      <point x="1441" y="117" type="line"/>
      <point x="1332" y="149"/>
      <point x="1227" y="208"/>
      <point x="1151" y="300" type="curve"/>
      <point x="1276" y="458"/>
      <point x="1369" y="682"/>
      <point x="1396" y="887" type="curve"/>
      <point x="1195" y="928" type="line"/>
      <point x="1175" y="759"/>
      <point x="1118" y="594"/>
      <point x="1026" y="459" type="curve"/>
      <point x="748" y="811" type="line"/>
      <point x="896" y="898"/>
      <point x="1032" y="1020"/>
      <point x="1051" y="1171" type="curve" smooth="yes"/>
      <point x="1076" y="1377"/>
      <point x="906" y="1472"/>
      <point x="724" y="1472" type="curve" smooth="yes"/>
      <point x="533" y="1472"/>
      <point x="361" y="1368"/>
      <point x="336" y="1165" type="curve" smooth="yes"/>
      <point x="321" y="1041"/>
      <point x="374" y="956"/>
      <point x="455" y="852" type="curve"/>
      <point x="273" y="752"/>
      <point x="108" y="634"/>
      <point x="82" y="418" type="curve" smooth="yes"/>
      <point x="47" y="139"/>
      <point x="249" y="-26"/>
    </contour>
    <contour>
      <point x="560" y="168" type="curve" smooth="yes"/>
      <point x="395" y="168"/>
      <point x="289" y="273"/>
      <point x="307" y="419" type="curve" smooth="yes"/>
      <point x="325" y="565"/>
      <point x="437" y="643"/>
      <point x="563" y="710" type="curve"/>
      <point x="890" y="306" type="line"/>
      <point x="800" y="228"/>
      <point x="699" y="168"/>
    </contour>
    <contour>
      <point x="633" y="944" type="curve"/>
      <point x="574" y="1012"/>
      <point x="545" y="1079"/>
      <point x="555" y="1160" type="curve" smooth="yes"/>
      <point x="566" y="1248"/>
      <point x="631" y="1290"/>
      <point x="710" y="1290" type="curve" smooth="yes"/>
      <point x="774" y="1290"/>
      <point x="844" y="1256"/>
      <point x="832" y="1161" type="curve" smooth="yes"/>
      <point x="821" y="1072"/>
      <point x="731" y="1002"/>
    </contour>
  </outline>
</glyph>
<glyph name="parenleft" format="1">
  <advance width="669"/>
  <unicode hex="0028"/>
  <outline>
    <contour>
      <point x="304" y="-171" type="curve"/>
      <point x="515" y="-171" type="line"/>
      <point x="388" y="85"/>
      <point x="316" y="399"/>
      <point x="349" y="663" type="curve" smooth="yes"/>
      <point x="383" y="948"/>
      <point x="518" y="1247"/>
      <point x="723" y="1516" type="curve"/>
      <point x="505" y="1516" type="line"/>
      <point x="306" y="1253"/>
      <point x="163" y="972"/>
      <point x="125" y="665" type="curve" smooth="yes"/>
      <point x="89" y="372"/>
      <point x="175" y="70"/>
    </contour>
  </outline>
</glyph>
<glyph name="parenright" format="1">
  <advance width="669"/>
  <unicode hex="0029"/>
  <outline>
    <contour>
      <point x="-53" y="-191" type="curve"/>
      <point x="165" y="-191" type="line"/>
      <point x="364" y="72"/>
      <point x="507" y="353"/>
      <point x="545" y="660" type="curve" smooth="yes"/>
      <point x="581" y="953"/>
      <point x="495" y="1254"/>
      <point x="365" y="1496" type="curve"/>
      <point x="155" y="1496" type="line"/>
      <point x="282" y="1239"/>
      <point x="353" y="925"/>
      <point x="321" y="661" type="curve" smooth="yes"/>
      <point x="286" y="377"/>
      <point x="151" y="78"/>
    </contour>
  </outline>
</glyph>
<glyph name="asterisk" format="1">
  <advance width="1076"/>
  <unicode hex="002A"/>
  <outline>
    <contour>
      <point x="642" y="670" type="line"/>
      <point x="823" y="781" type="line"/>
      <point x="641" y="1018" type="line"/>
      <point x="927" y="1118" type="line"/>
      <point x="870" y="1283" type="line"/>
      <point x="613" y="1160" type="line"/>
      <point x="675" y="1456" type="line"/>
      <point x="466" y="1456" type="line"/>
      <point x="459" y="1160" type="line"/>
      <point x="227" y="1283" type="line"/>
      <point x="133" y="1118" type="line"/>
      <point x="396" y="1018" type="line"/>
      <point x="159" y="784" type="line"/>
      <point x="311" y="671" type="line"/>
      <point x="508" y="924" type="line"/>
    </contour>
  </outline>
</glyph>
<glyph name="plus" format="1">
  <advance width="1242"/>
  <unicode hex="002B"/>
  <outline>
    <contour>
      <point x="455" y="87" type="line"/>
      <point x="664" y="87" type="line"/>
      <point x="714" y="488" type="line"/>
      <point x="1097" y="488" type="line"/>
      <point x="1119" y="676" type="line"/>
      <point x="737" y="676" type="line"/>
      <point x="786" y="1073" type="line"/>
      <point x="578" y="1073" type="line"/>
      <point x="529" y="676" type="line"/>
      <point x="146" y="676" type="line"/>
      <point x="124" y="488" type="line"/>
      <point x="504" y="488" type="line"/>
    </contour>
  </outline>
</glyph>
<glyph name="comma" format="1">
  <advance width="523"/>
  <unicode hex="002C"/>
  <outline>
    <contour>
      <point x="29" y="-251" type="line"/>
      <point x="216" y="-251" type="line"/>
      <point x="453" y="250" type="line"/>
      <point x="201" y="250" type="line"/>
    </contour>
  </outline>
</glyph>
<glyph name="hyphen" format="1">
  <advance width="717"/>
  <unicode hex="002D"/>
  <outline>
    <contour>
      <point x="355" y="551" type="move" name="_mid"/>
    </contour>
    <contour>
      <point x="47" y="469" type="line"/>
      <point x="649" y="469" type="line"/>
      <point x="670" y="641" type="line"/>
      <point x="68" y="641" type="line"/>
    </contour>
  </outline>
</glyph>
<glyph name="zero" format="1">
  <advance width="1256"/>
  <unicode hex="0030"/>
  <outline>
    <contour>
      <point x="566" y="174" type="curve" smooth="yes"/>
      <point x="360" y="174"/>
      <point x="321" y="412"/>
      <point x="361" y="737" type="curve" smooth="yes"/>
      <point x="397" y="1029"/>
      <point x="496" y="1286"/>
      <point x="702" y="1286" type="curve" smooth="yes"/>
      <point x="901" y="1286"/>
      <point x="932" y="1029"/>
      <point x="896" y="736" type="curve" smooth="yes"/>
      <point x="856" y="412"/>
      <point x="764" y="174"/>
    </contour>
    <contour>
      <point x="538" y="-23" type="curve" smooth="yes"/>
      <point x="873" y="-23"/>
      <point x="1078" y="287"/>
      <point x="1133" y="737" type="curve" smooth="yes"/>
      <point x="1189" y="1191"/>
      <point x="1057" y="1483"/>
      <point x="724" y="1483" type="curve" smooth="yes"/>
      <point x="391" y="1483"/>
      <point x="182" y="1203"/>
      <point x="125" y="737" type="curve" smooth="yes"/>
      <point x="69" y="286"/>
      <point x="208" y="-23"/>
    </contour>
  </outline>
</glyph>
<glyph name="two" format="1">
  <advance width="1256"/>
  <unicode hex="0032"/>
  <outline>
    <contour>
      <point x="108" y="0" type="line"/>
      <point x="950" y="0" type="line"/>
      <point x="974" y="190" type="line"/>
      <point x="413" y="190" type="line"/>
      <point x="742" y="493" type="line" smooth="yes"/>
      <point x="928" y="665"/>
      <point x="1072" y="824"/>
      <point x="1087" y="1058" type="curve" smooth="yes"/>
      <point x="1105" y="1326"/>
      <point x="943" y="1481"/>
      <point x="693" y="1481" type="curve" smooth="yes"/>
      <point x="419" y="1481"/>
      <point x="218" y="1339"/>
      <point x="218" y="1339" type="curve"/>
      <point x="271" y="1158" type="line"/>
      <point x="272" y="1158"/>
      <point x="464" y="1286"/>
      <point x="651" y="1286" type="curve" smooth="yes"/>
      <point x="780" y="1286"/>
      <point x="867" y="1214"/>
      <point x="863" y="1061" type="curve" smooth="yes"/>
      <point x="861" y="899"/>
      <point x="789" y="797"/>
      <point x="612" y="629" type="curve" smooth="yes"/>
      <point x="129" y="173" type="line"/>
    </contour>
  </outline>
</glyph>
<glyph name="three" format="1">
  <advance width="1256"/>
  <unicode hex="0033"/>
  <outline>
    <contour>
      <point x="514" y="-23" type="curve" smooth="yes"/>
      <point x="778" y="-23"/>
      <point x="1021" y="138"/>
      <point x="1055" y="409" type="curve" smooth="yes"/>
      <point x="1076" y="587"/>
      <point x="984" y="729"/>
      <point x="794" y="765" type="curve"/>
      <point x="984" y="800"/>
      <point x="1086" y="949"/>
      <point x="1106" y="1105" type="curve" smooth="yes"/>
      <point x="1137" y="1358"/>
      <point x="922" y="1483"/>
      <point x="687" y="1483" type="curve" smooth="yes"/>
      <point x="474" y="1483"/>
      <point x="358" y="1433"/>
      <point x="217" y="1333" type="curve"/>
      <point x="301" y="1172" type="line"/>
      <point x="361" y="1211"/>
      <point x="468" y="1286"/>
      <point x="634" y="1286" type="curve" smooth="yes"/>
      <point x="764" y="1286"/>
      <point x="890" y="1227"/>
      <point x="875" y="1101" type="curve" smooth="yes"/>
      <point x="852" y="914"/>
      <point x="732" y="856"/>
      <point x="486" y="856" type="curve" smooth="yes"/>
      <point x="417" y="856" type="line"/>
      <point x="396" y="661" type="line"/>
      <point x="462" y="663" type="line" smooth="yes"/>
      <point x="703" y="668"/>
      <point x="852" y="594"/>
      <point x="830" y="418" type="curve" smooth="yes"/>
      <point x="811" y="267"/>
      <point x="691" y="174"/>
      <point x="507" y="174" type="curve" smooth="yes"/>
      <point x="336" y="174"/>
      <point x="193" y="262"/>
      <point x="183" y="267" type="curve"/>
      <point x="93" y="92" type="line"/>
      <point x="96" y="90"/>
      <point x="240" y="-23"/>
    </contour>
  </outline>
</glyph>
<glyph name="four" format="1">
  <advance width="1256"/>
  <unicode hex="0034"/>
  <outline>
    <contour>
      <point x="649" y="0" type="line"/>
      <point x="875" y="0" type="line"/>
      <point x="922" y="383" type="line"/>
      <point x="1144" y="383" type="line"/>
      <point x="1165" y="556" type="line"/>
      <point x="940" y="556" type="line"/>
      <point x="1050" y="1456" type="line"/>
      <point x="786" y="1456" type="line"/>
      <point x="84" y="542" type="line"/>
      <point x="65" y="383" type="line"/>
      <point x="696" y="383" type="line"/>
    </contour>
    <contour>
      <point x="332" y="556" type="line"/>
      <point x="662" y="1008" type="line"/>
      <point x="797" y="1196" type="line"/>
      <point x="718" y="556" type="line"/>
    </contour>
  </outline>
</glyph>
<glyph name="five" format="1">
  <advance width="1256"/>
  <unicode hex="0035"/>
  <outline>
    <contour>
      <point x="527" y="-23" type="curve" smooth="yes"/>
      <point x="804" y="-23"/>
      <point x="1063" y="156"/>
      <point x="1101" y="471" type="curve" smooth="yes"/>
      <point x="1135" y="747"/>
      <point x="979" y="956"/>
      <point x="741" y="956" type="curve" smooth="yes"/>
      <point x="640" y="956"/>
      <point x="537" y="931"/>
      <point x="470" y="860" type="curve"/>
      <point x="531" y="1259" type="line"/>
      <point x="1124" y="1259" type="line"/>
      <point x="1148" y="1456" type="line"/>
      <point x="349" y="1456" type="line"/>
      <point x="255" y="698" type="line"/>
      <point x="478" y="674" type="line"/>
      <point x="521" y="728"/>
      <point x="603" y="751"/>
      <point x="678" y="751" type="curve" smooth="yes"/>
      <point x="820" y="751"/>
      <point x="883" y="621"/>
      <point x="865" y="475" type="curve" smooth="yes"/>
      <point x="842" y="285"/>
      <point x="709" y="174"/>
      <point x="547" y="174" type="curve" smooth="yes"/>
      <point x="435" y="174"/>
      <point x="316" y="223"/>
      <point x="233" y="337" type="curve"/>
      <point x="95" y="165" type="line"/>
      <point x="203" y="36"/>
      <point x="364" y="-23"/>
    </contour>
  </outline>
</glyph>
<glyph name="six" format="1">
  <advance width="1256"/>
  <unicode hex="0036"/>
  <outline>
    <contour>
      <point x="583" y="-23" type="curve" smooth="yes"/>
      <point x="885" y="-23"/>
      <point x="1099" y="191"/>
      <point x="1133" y="472" type="curve" smooth="yes"/>
      <point x="1169" y="767"/>
      <point x="1007" y="954"/>
      <point x="730" y="954" type="curve" smooth="yes"/>
      <point x="601" y="954"/>
      <point x="486" y="900"/>
      <point x="396" y="790" type="curve"/>
      <point x="400" y="813"/>
      <point x="404" y="837"/>
      <point x="409" y="859" type="curve" smooth="yes"/>
      <point x="464" y="1100"/>
      <point x="606" y="1286"/>
      <point x="798" y="1286" type="curve" smooth="yes"/>
      <point x="903" y="1286"/>
      <point x="992" y="1253"/>
      <point x="1067" y="1188" type="curve"/>
      <point x="1164" y="1359" type="line"/>
      <point x="1086" y="1439"/>
      <point x="967" y="1483"/>
      <point x="820" y="1483" type="curve" smooth="yes"/>
      <point x="436" y="1483"/>
      <point x="197" y="1128"/>
      <point x="144" y="696" type="curve" smooth="yes"/>
      <point x="91" y="267"/>
      <point x="227" y="-23"/>
    </contour>
    <contour>
      <point x="604" y="174" type="curve" smooth="yes"/>
      <point x="459" y="174"/>
      <point x="350" y="288"/>
      <point x="374" y="481" type="curve" smooth="yes"/>
      <point x="394" y="645"/>
      <point x="517" y="766"/>
      <point x="684" y="766" type="curve" smooth="yes"/>
      <point x="849" y="766"/>
      <point x="916" y="636"/>
      <point x="896" y="469" type="curve" smooth="yes"/>
      <point x="875" y="302"/>
      <point x="761" y="174"/>
    </contour>
  </outline>
</glyph>
<glyph name="eight" format="1">
  <advance width="1258"/>
  <unicode hex="0038"/>
  <outline>
    <contour>
      <point x="541" y="-23" type="curve" smooth="yes"/>
      <point x="796" y="-23"/>
      <point x="1046" y="121"/>
      <point x="1078" y="383" type="curve" smooth="yes"/>
      <point x="1099" y="549"/>
      <point x="1003" y="694"/>
      <point x="858" y="761" type="curve"/>
      <point x="1007" y="823"/>
      <point x="1114" y="935"/>
      <point x="1134" y="1096" type="curve" smooth="yes"/>
      <point x="1164" y="1338"/>
      <point x="998" y="1483"/>
      <point x="720" y="1483" type="curve" smooth="yes"/>
      <point x="460" y="1483"/>
      <point x="247" y="1342"/>
      <point x="218" y="1103" type="curve" smooth="yes"/>
      <point x="198" y="943"/>
      <point x="284" y="832"/>
      <point x="414" y="764" type="curve"/>
      <point x="240" y="693"/>
      <point x="120" y="558"/>
      <point x="99" y="389" type="curve" smooth="yes"/>
      <point x="67" y="126"/>
      <point x="268" y="-23"/>
    </contour>
    <contour>
      <point x="562" y="169" type="curve" smooth="yes"/>
      <point x="407" y="169"/>
      <point x="313" y="249"/>
      <point x="331" y="395" type="curve" smooth="yes"/>
      <point x="348" y="537"/>
      <point x="474" y="643"/>
      <point x="628" y="676" type="curve"/>
      <point x="767" y="642"/>
      <point x="867" y="526"/>
      <point x="851" y="397" type="curve" smooth="yes"/>
      <point x="832" y="242"/>
      <point x="716" y="169"/>
    </contour>
    <contour>
      <point x="645" y="852" type="curve"/>
      <point x="506" y="887"/>
      <point x="429" y="978"/>
      <point x="443" y="1099" type="curve" smooth="yes"/>
      <point x="460" y="1229"/>
      <point x="568" y="1292"/>
      <point x="698" y="1292" type="curve" smooth="yes"/>
      <point x="824" y="1292"/>
      <point x="922" y="1226"/>
      <point x="908" y="1107" type="curve" smooth="yes"/>
      <point x="892" y="980"/>
      <point x="792" y="890"/>
    </contour>
  </outline>
</glyph>
<glyph name="nine" format="1">
  <advance width="1256"/>
  <unicode hex="0039"/>
  <outline>
    <contour>
      <point x="470" y="-24" type="curve" smooth="yes"/>
      <point x="812" y="-24"/>
      <point x="1057" y="275"/>
      <point x="1118" y="771" type="curve" smooth="yes"/>
      <point x="1176" y="1238"/>
      <point x="1028" y="1483"/>
      <point x="706" y="1483" type="curve" smooth="yes"/>
      <point x="402" y="1483"/>
      <point x="190" y="1271"/>
      <point x="155" y="995" type="curve" smooth="yes"/>
      <point x="121" y="718"/>
      <point x="273" y="525"/>
      <point x="554" y="525" type="curve" smooth="yes"/>
      <point x="677" y="525"/>
      <point x="797" y="564"/>
      <point x="878" y="675" type="curve"/>
      <point x="873" y="637" type="line" smooth="yes"/>
      <point x="833" y="315"/>
      <point x="665" y="174"/>
      <point x="476" y="174" type="curve" smooth="yes"/>
      <point x="388" y="174"/>
      <point x="299" y="203"/>
      <point x="216" y="259" type="curve"/>
      <point x="113" y="73" type="line"/>
      <point x="240" y="5"/>
      <point x="359" y="-24"/>
    </contour>
    <contour>
      <point x="603" y="716" type="curve" smooth="yes"/>
      <point x="430" y="716"/>
      <point x="369" y="840"/>
      <point x="389" y="1000" type="curve" smooth="yes"/>
      <point x="409" y="1168"/>
      <point x="523" y="1286"/>
      <point x="686" y="1286" type="curve" smooth="yes"/>
      <point x="854" y="1286"/>
      <point x="930" y="1154"/>
      <point x="912" y="1008" type="curve" smooth="yes"/>
      <point x="888" y="817"/>
      <point x="761" y="716"/>
    </contour>
  </outline>
</glyph>
<glyph name="colon" format="1">
  <advance width="571"/>
  <unicode hex="003A"/>
  <outline>
    <contour>
      <point x="89" y="-7" type="line"/>
      <point x="356" y="-7" type="line"/>
      <point x="387" y="247" type="line"/>
      <point x="120" y="247" type="line"/>
    </contour>
    <contour>
      <point x="196" y="858" type="line"/>
      <point x="463" y="858" type="line"/>
      <point x="493" y="1111" type="line"/>
      <point x="227" y="1111" type="line"/>
    </contour>
  </outline>
</glyph>
<glyph name="semicolon" format="1">
  <advance width="541"/>
  <unicode hex="003B"/>
  <outline>
    <contour>
      <point x="-5" y="-251" type="line"/>
      <point x="182" y="-251" type="line"/>
      <point x="417" y="250" type="line"/>
      <point x="164" y="250" type="line"/>
    </contour>
    <contour>
      <point x="230" y="858" type="line"/>
      <point x="472" y="858" type="line"/>
      <point x="503" y="1111" type="line"/>
      <point x="261" y="1111" type="line"/>
    </contour>
  </outline>
</glyph>
<glyph name="less" format="1">
  <advance width="1354"/>
  <unicode hex="003C"/>
  <outline>
    <contour>
      <point x="1072" y="48" type="line"/>
      <point x="1097" y="251" type="line"/>
      <point x="424" y="573" type="line"/>
      <point x="1180" y="892" type="line"/>
      <point x="1205" y="1099" type="line"/>
      <point x="138" y="626" type="line"/>
      <point x="125" y="519" type="line"/>
    </contour>
  </outline>
</glyph>
<glyph name="equal" format="1">
  <advance width="1407"/>
  <unicode hex="003D"/>
  <outline>
    <contour>
      <point x="163" y="273" type="line"/>
      <point x="1172" y="273" type="line"/>
      <point x="1194" y="455" type="line"/>
      <point x="186" y="455" type="line"/>
    </contour>
    <contour>
      <point x="213" y="673" type="line"/>
      <point x="1219" y="673" type="line"/>
      <point x="1242" y="856" type="line"/>
      <point x="235" y="856" type="line"/>
    </contour>
  </outline>
</glyph>
<glyph name="greater" format="1">
  <advance width="1356"/>
  <unicode hex="003E"/>
  <outline>
    <contour>
      <point x="150" y="51" type="line"/>
      <point x="1215" y="502" type="line"/>
      <point x="1230" y="616" type="line"/>
      <point x="284" y="1105" type="line"/>
      <point x="259" y="899" type="line"/>
      <point x="925" y="569" type="line"/>
      <point x="176" y="260" type="line"/>
    </contour>
  </outline>
</glyph>
<glyph name="question" format="1">
  <advance width="1034"/>
  <unicode hex="003F"/>
  <outline>
    <contour>
      <point x="289" y="399" type="line"/>
      <point x="470" y="399" type="line"/>
      <point x="479" y="476" type="line" smooth="yes"/>
      <point x="511" y="739"/>
      <point x="934" y="825"/>
      <point x="971" y="1126" type="curve" smooth="yes"/>
      <point x="1001" y="1367"/>
      <point x="819" y="1483"/>
      <point x="584" y="1483" type="curve" smooth="yes"/>
      <point x="422" y="1483"/>
      <point x="296" y="1431"/>
      <point x="256" y="1413" type="curve"/>
      <point x="232" y="1218" type="line"/>
      <point x="283" y="1242"/>
      <point x="419" y="1288"/>
      <point x="537" y="1288" type="curve" smooth="yes"/>
      <point x="660" y="1288"/>
      <point x="753" y="1241"/>
      <point x="738" y="1119" type="curve" smooth="yes"/>
      <point x="712" y="910"/>
      <point x="337" y="794"/>
      <point x="306" y="538" type="curve" smooth="yes"/>
    </contour>
    <contour>
      <point x="214" y="0" type="line"/>
      <point x="459" y="0" type="line"/>
      <point x="490" y="251" type="line"/>
      <point x="245" y="251" type="line"/>
    </contour>
  </outline>
</glyph>
<glyph name="at" format="1">
  <advance width="1796"/>
  <unicode hex="0040"/>
  <outline>
    <contour>
      <point x="840" y="-97" type="curve" smooth="yes"/>
      <point x="1050" y="-97"/>
      <point x="1270" y="-37"/>
      <point x="1437" y="86" type="curve"/>
      <point x="1372" y="190" type="line"/>
      <point x="1216" y="95"/>
      <point x="1036" y="48"/>
      <point x="873" y="48" type="curve" smooth="yes"/>
      <point x="534" y="48"/>
      <point x="238" y="251"/>
      <point x="289" y="671" type="curve" smooth="yes"/>
      <point x="343" y="1112"/>
      <point x="677" y="1332"/>
      <point x="1039" y="1332" type="curve" smooth="yes"/>
      <point x="1338" y="1332"/>
      <point x="1596" y="1154"/>
      <point x="1553" y="800" type="curve" smooth="yes"/>
      <point x="1522" y="550"/>
      <point x="1358" y="371"/>
      <point x="1262" y="371" type="curve" smooth="yes"/>
      <point x="1217" y="371"/>
      <point x="1205" y="421"/>
      <point x="1209" y="458" type="curve" smooth="yes"/>
      <point x="1214" y="495"/>
      <point x="1223" y="535"/>
      <point x="1252" y="628" type="curve" smooth="yes"/>
      <point x="1409" y="1116" type="line"/>
      <point x="1215" y="1116" type="line"/>
      <point x="1180" y="1014" type="line"/>
      <point x="1161" y="1102"/>
      <point x="1087" y="1138"/>
      <point x="986" y="1138" type="curve" smooth="yes"/>
      <point x="786" y="1138"/>
      <point x="513" y="928"/>
      <point x="473" y="624" type="curve" smooth="yes"/>
      <point x="441" y="381"/>
      <point x="602" y="260"/>
      <point x="758" y="260" type="curve" smooth="yes"/>
      <point x="910" y="260"/>
      <point x="1022" y="351"/>
      <point x="1075" y="462" type="curve"/>
      <point x="1060" y="340"/>
      <point x="1125" y="254"/>
      <point x="1264" y="254" type="curve" smooth="yes"/>
      <point x="1467" y="254"/>
      <point x="1670" y="525"/>
      <point x="1703" y="795" type="curve" smooth="yes"/>
      <point x="1752" y="1198"/>
      <point x="1466" y="1481"/>
      <point x="1051" y="1481" type="curve" smooth="yes"/>
      <point x="591" y="1481"/>
      <point x="165" y="1175"/>
      <point x="104" y="671" type="curve" smooth="yes"/>
      <point x="46" y="198"/>
      <point x="370" y="-97"/>
    </contour>
    <contour>
      <point x="808" y="432" type="curve" smooth="yes"/>
      <point x="724" y="432"/>
      <point x="674" y="497"/>
      <point x="686" y="593" type="curve" smooth="yes"/>
      <point x="707" y="764"/>
      <point x="832" y="975"/>
      <point x="989" y="975" type="curve" smooth="yes"/>
      <point x="1072" y="975"/>
      <point x="1117" y="916"/>
      <point x="1106" y="821" type="curve" smooth="yes"/>
      <point x="1081" y="625"/>
      <point x="952" y="432"/>
    </contour>
  </outline>
</glyph>
<glyph name="A" format="1">
  <advance width="1434"/>
  <unicode hex="0041"/>
  <outline>
    <contour>
      <point x="809" y="1456" type="move" name="top"/>
    </contour>
    <contour>
      <point x="1201" y="0" type="move" name="ogonek"/>
    </contour>
    <contour>
      <point x="-71" y="0" type="line"/>
      <point x="180" y="0" type="line"/>
      <point x="369" y="373" type="line"/>
      <point x="969" y="373" type="line"/>
      <point x="1071" y="0" type="line"/>
      <point x="1328" y="0" type="line"/>
      <point x="922" y="1456" type="line"/>
      <point x="686" y="1456" type="line"/>
    </contour>
    <contour>
      <point x="467" y="576" type="line"/>
      <point x="619" y="888" type="line"/>
      <point x="769" y="1199" type="line"/>
      <point x="842" y="888" type="line"/>
      <point x="913" y="576" type="line"/>
    </contour>
  </outline>
</glyph>
<glyph name="B" format="1">
  <advance width="1361"/>
  <unicode hex="0042"/>
  <outline>
    <contour>
      <point x="738" y="1456" type="move" name="top"/>
    </contour>
    <contour>
      <point x="105" y="0" type="line"/>
      <point x="630" y="0" type="line" smooth="yes"/>
      <point x="989" y="0"/>
      <point x="1183" y="197"/>
      <point x="1210" y="417" type="curve" smooth="yes"/>
      <point x="1232" y="596"/>
      <point x="1154" y="736"/>
      <point x="973" y="778" type="curve"/>
      <point x="1132" y="838"/>
      <point x="1209" y="957"/>
      <point x="1225" y="1093" type="curve" smooth="yes"/>
      <point x="1267" y="1429"/>
      <point x="929" y="1456"/>
      <point x="672" y="1456" type="curve" smooth="yes"/>
      <point x="283" y="1456" type="line"/>
    </contour>
    <contour>
      <point x="360" y="197" type="line"/>
      <point x="417" y="662" type="line"/>
      <point x="654" y="662" type="line" smooth="yes"/>
      <point x="900" y="662"/>
      <point x="988" y="609"/>
      <point x="966" y="426" type="curve" smooth="yes"/>
      <point x="947" y="276"/>
      <point x="823" y="197"/>
      <point x="613" y="197" type="curve" smooth="yes"/>
    </contour>
    <contour>
      <point x="439" y="852" type="line"/>
      <point x="489" y="1260" type="line"/>
      <point x="673" y="1260" type="line" smooth="yes"/>
      <point x="877" y="1260"/>
      <point x="998" y="1227"/>
      <point x="978" y="1063" type="curve" smooth="yes"/>
      <point x="958" y="896"/>
      <point x="808" y="852"/>
      <point x="662" y="852" type="curve" smooth="yes"/>
    </contour>
  </outline>
</glyph>
<glyph name="C" format="1">
  <advance width="1416"/>
  <unicode hex="0043"/>
  <outline>
    <contour>
      <point x="913" y="1456" type="move" name="top"/>
    </contour>
    <contour>
      <point x="731" y="0" type="move" name="bot"/>
    </contour>
    <contour>
      <point x="739" y="-22" type="curve" smooth="yes"/>
      <point x="913" y="-22"/>
      <point x="1089" y="23"/>
      <point x="1255" y="139" type="curve"/>
      <point x="1200" y="322" type="line"/>
      <point x="1050" y="216"/>
      <point x="908" y="175"/>
      <point x="776" y="175" type="curve" smooth="yes"/>
      <point x="493" y="175"/>
      <point x="306" y="384"/>
      <point x="348" y="726" type="curve" smooth="yes"/>
      <point x="387" y="1052"/>
      <point x="622" y="1286"/>
      <point x="902" y="1286" type="curve" smooth="yes"/>
      <point x="1022" y="1286"/>
      <point x="1139" y="1259"/>
      <point x="1254" y="1169" type="curve"/>
      <point x="1364" y="1328" type="line"/>
      <point x="1234" y="1444"/>
      <point x="1077" y="1483"/>
      <point x="907" y="1483" type="curve" smooth="yes"/>
      <point x="533" y="1483"/>
      <point x="164" y="1204"/>
      <point x="105" y="723" type="curve" smooth="yes"/>
      <point x="45" y="233"/>
      <point x="364" y="-22"/>
    </contour>
  </outline>
</glyph>
<glyph name="D" format="1">
  <advance width="1555"/>
  <unicode hex="0044"/>
  <outline>
    <contour>
      <point x="801" y="1456" type="move" name="top"/>
    </contour>
    <contour>
      <point x="333" y="760" type="move" name="mid"/>
    </contour>
    <contour>
      <point x="358" y="196" type="line"/>
      <point x="489" y="1260" type="line"/>
      <point x="658" y="1260" type="line" smooth="yes"/>
      <point x="1077" y="1260"/>
      <point x="1250" y="1086"/>
      <point x="1206" y="734" type="curve" smooth="yes"/>
      <point x="1164" y="392"/>
      <point x="949" y="196"/>
      <point x="579" y="196" type="curve" smooth="yes"/>
    </contour>
    <contour>
      <point x="105" y="0" type="line"/>
      <point x="542" y="0" type="line" smooth="yes"/>
      <point x="1073" y="0"/>
      <point x="1392" y="263"/>
      <point x="1450" y="733" type="curve" smooth="yes"/>
      <point x="1510" y="1219"/>
      <point x="1231" y="1456"/>
      <point x="659" y="1456" type="curve" smooth="yes"/>
      <point x="283" y="1456" type="line"/>
    </contour>
  </outline>
</glyph>
<glyph name="E" format="1">
  <advance width="1221"/>
  <unicode hex="0045"/>
  <outline>
    <contour>
      <point x="748" y="1456" type="move" name="top"/>
    </contour>
    <contour>
      <point x="758" y="0" type="move" name="ogonek"/>
    </contour>
    <contour>
      <point x="569" y="0" type="move" name="bot"/>
    </contour>
    <contour>
      <point x="105" y="0" type="line"/>
      <point x="1035" y="0" type="line"/>
      <point x="1059" y="196" type="line"/>
      <point x="360" y="196" type="line"/>
      <point x="416" y="652" type="line"/>
      <point x="1048" y="652" type="line"/>
      <point x="1072" y="849" type="line"/>
      <point x="439" y="849" type="line"/>
      <point x="489" y="1260" type="line"/>
      <point x="1160" y="1260" type="line"/>
      <point x="1184" y="1456" type="line"/>
      <point x="283" y="1456" type="line"/>
    </contour>
  </outline>
</glyph>
<glyph name="F" format="1">
  <advance width="1133"/>
  <unicode hex="0046"/>
  <outline>
    <contour>
      <point x="735" y="1456" type="move" name="top"/>
    </contour>
    <contour>
      <point x="105" y="0" type="line"/>
      <point x="335" y="0" type="line"/>
      <point x="414" y="650" type="line"/>
      <point x="1014" y="650" type="line"/>
      <point x="1038" y="847" type="line"/>
      <point x="438" y="847" type="line"/>
      <point x="489" y="1260" type="line"/>
      <point x="1129" y="1260" type="line"/>
      <point x="1152" y="1456" type="line"/>
      <point x="283" y="1456" type="line"/>
    </contour>
  </outline>
</glyph>
<glyph name="G" format="1">
  <advance width="1534"/>
  <unicode hex="0047"/>
  <outline>
    <contour>
      <point x="923" y="1456" type="move" name="top"/>
    </contour>
    <contour>
      <point x="743" y="0" type="move" name="bot"/>
    </contour>
    <contour>
      <point x="757" y="-23" type="curve" smooth="yes"/>
      <point x="925" y="-23"/>
      <point x="1101" y="6"/>
      <point x="1287" y="86" type="curve"/>
      <point x="1373" y="783" type="line"/>
      <point x="791" y="783" type="line"/>
      <point x="766" y="586" type="line"/>
      <point x="1116" y="586" type="line"/>
      <point x="1071" y="216" type="line"/>
      <point x="983" y="188"/>
      <point x="882" y="174"/>
      <point x="791" y="174" type="curve" smooth="yes"/>
      <point x="443" y="174"/>
      <point x="305" y="397"/>
      <point x="344" y="715" type="curve" smooth="yes"/>
      <point x="382" y="1021"/>
      <point x="604" y="1286"/>
      <point x="942" y="1286" type="curve" smooth="yes"/>
      <point x="1127" y="1286"/>
      <point x="1240" y="1235"/>
      <point x="1317" y="1176" type="curve"/>
      <point x="1429" y="1338" type="line"/>
      <point x="1348" y="1404"/>
      <point x="1219" y="1483"/>
      <point x="963" y="1483" type="curve" smooth="yes"/>
      <point x="492" y="1483"/>
      <point x="157" y="1138"/>
      <point x="104" y="704" type="curve" smooth="yes"/>
      <point x="50" y="267"/>
      <point x="270" y="-23"/>
    </contour>
  </outline>
</glyph>
<glyph name="J" format="1">
  <advance width="903"/>
  <unicode hex="004A"/>
  <outline>
    <contour>
      <point x="716" y="1456" type="move" name="top"/>
    </contour>
    <contour>
      <point x="219" y="-331" type="curve" smooth="yes"/>
      <point x="463" y="-331"/>
      <point x="622" y="-176"/>
      <point x="658" y="120" type="curve" smooth="yes"/>
      <point x="822" y="1456" type="line"/>
      <point x="592" y="1456" type="line"/>
      <point x="427" y="114" type="line" smooth="yes"/>
      <point x="408" y="-43"/>
      <point x="352" y="-136"/>
      <point x="205" y="-136" type="curve" smooth="yes"/>
      <point x="140" y="-136"/>
      <point x="68" y="-120"/>
      <point x="-7" y="-96" type="curve"/>
      <point x="-66" y="-273" type="line"/>
      <point x="26" y="-308"/>
      <point x="126" y="-331"/>
    </contour>
  </outline>
</glyph>
<glyph name="K" format="1">
  <advance width="1329"/>
  <unicode hex="004B"/>
  <outline>
    <contour>
      <point x="779" y="1456" type="move" name="top"/>
    </contour>
    <contour>
      <point x="648" y="0" type="move" name="bot"/>
    </contour>
    <contour>
      <point x="105" y="0" type="line"/>
      <point x="336" y="0" type="line"/>
      <point x="418" y="667" type="line"/>
      <point x="960" y="0" type="line"/>
      <point x="1256" y="0" type="line"/>
      <point x="652" y="753" type="line"/>
      <point x="1385" y="1456" type="line"/>
      <point x="1098" y="1456" type="line"/>
      <point x="434" y="812" type="line"/>
      <point x="513" y="1456" type="line"/>
      <point x="283" y="1456" type="line"/>
    </contour>
  </outline>
</glyph>
<glyph name="M" format="1">
  <advance width="1961"/>
  <unicode hex="004D"/>
  <outline>
    <contour>
      <point x="1074" y="1456" type="move" name="top"/>
    </contour>
    <contour>
      <point x="105" y="0" type="line"/>
      <point x="326" y="0" type="line"/>
      <point x="458" y="1073" type="line"/>
      <point x="519" y="887" type="line"/>
      <point x="808" y="0" type="line"/>
      <point x="977" y="0" type="line"/>
      <point x="1486" y="895" type="line"/>
      <point x="1594" y="1080" type="line"/>
      <point x="1462" y="0" type="line"/>
      <point x="1678" y="0" type="line"/>
      <point x="1856" y="1456" type="line"/>
      <point x="1584" y="1456" type="line"/>
      <point x="1062" y="532" type="line"/>
      <point x="930" y="296" type="line"/>
      <point x="856" y="526" type="line"/>
      <point x="557" y="1456" type="line"/>
      <point x="283" y="1456" type="line"/>
    </contour>
  </outline>
</glyph>
<glyph name="N" format="1">
  <advance width="1616"/>
  <unicode hex="004E"/>
  <outline>
    <contour>
      <point x="912" y="1456" type="move" name="top"/>
    </contour>
    <contour>
      <point x="759" y="0" type="move" name="bot"/>
    </contour>
    <contour>
      <point x="105" y="0" type="line"/>
      <point x="318" y="0" type="line"/>
      <point x="455" y="1122" type="line"/>
      <point x="558" y="930" type="line"/>
      <point x="1087" y="0" type="line"/>
      <point x="1333" y="0" type="line"/>
      <point x="1511" y="1456" type="line"/>
      <point x="1293" y="1456" type="line"/>
      <point x="1155" y="332" type="line"/>
      <point x="1063" y="503" type="line"/>
      <point x="528" y="1456" type="line"/>
      <point x="283" y="1456" type="line"/>
    </contour>
  </outline>
</glyph>
<glyph name="O" format="1">
  <advance width="1653"/>
  <unicode hex="004F"/>
  <outline>
    <contour>
      <point x="922" y="1456" type="move" name="top"/>
    </contour>
    <contour>
      <point x="777" y="0" type="move" name="ogonek"/>
    </contour>
    <contour>
      <point x="758" y="174" type="curve" smooth="yes"/>
      <point x="442" y="174"/>
      <point x="311" y="387"/>
      <point x="354" y="733" type="curve" smooth="yes"/>
      <point x="395" y="1064"/>
      <point x="585" y="1286"/>
      <point x="898" y="1286" type="curve" smooth="yes"/>
      <point x="1212" y="1286"/>
      <point x="1338" y="1064"/>
      <point x="1297" y="733" type="curve" smooth="yes"/>
      <point x="1255" y="388"/>
      <point x="1075" y="174"/>
    </contour>
    <contour>
      <point x="738" y="-23" type="curve" smooth="yes"/>
      <point x="1190" y="-23"/>
      <point x="1491" y="275"/>
      <point x="1547" y="733" type="curve" smooth="yes"/>
      <point x="1602" y="1178"/>
      <point x="1365" y="1483"/>
      <point x="925" y="1483" type="curve" smooth="yes"/>
      <point x="468" y="1483"/>
      <point x="161" y="1177"/>
      <point x="106" y="733" type="curve" smooth="yes"/>
      <point x="50" y="273"/>
      <point x="285" y="-23"/>
    </contour>
  </outline>
</glyph>
<glyph name="P" format="1">
  <advance width="1283"/>
  <unicode hex="0050"/>
  <outline>
    <contour>
      <point x="749" y="1456" type="move" name="top"/>
    </contour>
    <contour>
      <point x="105" y="0" type="line"/>
      <point x="335" y="0" type="line"/>
      <point x="412" y="640" type="line"/>
      <point x="653" y="640" type="line" smooth="yes"/>
      <point x="991" y="640"/>
      <point x="1216" y="736"/>
      <point x="1254" y="1047" type="curve" smooth="yes"/>
      <point x="1299" y="1413"/>
      <point x="1041" y="1456"/>
      <point x="698" y="1456" type="curve" smooth="yes"/>
      <point x="283" y="1456" type="line"/>
    </contour>
    <contour>
      <point x="437" y="837" type="line"/>
      <point x="489" y="1259" type="line"/>
      <point x="682" y="1259" type="line" smooth="yes"/>
      <point x="904" y="1259"/>
      <point x="1039" y="1245"/>
      <point x="1015" y="1045" type="curve" smooth="yes"/>
      <point x="994" y="875"/>
      <point x="866" y="837"/>
      <point x="674" y="837" type="curve" smooth="yes"/>
    </contour>
  </outline>
</glyph>
<glyph name="Q" format="1">
  <advance width="1653"/>
  <unicode hex="0051"/>
  <outline>
    <contour>
      <point x="1129" y="-439" type="curve"/>
      <point x="1277" y="-299" type="line"/>
      <point x="1277" y="-299"/>
      <point x="1097" y="-72"/>
      <point x="1035" y="99" type="curve"/>
      <point x="826" y="58" type="line"/>
      <point x="918" y="-189"/>
      <point x="1129" y="-439"/>
    </contour>
    <component base="O"/>
  </outline>
</glyph>
<glyph name="R" format="1">
  <advance width="1372"/>
  <unicode hex="0052"/>
  <outline>
    <contour>
      <point x="756" y="1456" type="move" name="top"/>
    </contour>
    <contour>
      <point x="644" y="0" type="move" name="bot"/>
    </contour>
    <contour>
      <point x="105" y="0" type="line"/>
      <point x="335" y="0" type="line"/>
      <point x="411" y="630" type="line"/>
      <point x="629" y="630" type="line" smooth="yes"/>
      <point x="774" y="630"/>
      <point x="814" y="586"/>
      <point x="853" y="433" type="curve" smooth="yes"/>
      <point x="965" y="0" type="line"/>
      <point x="1214" y="0" type="line"/>
      <point x="1085" y="459" type="line" smooth="yes"/>
      <point x="1049" y="587"/>
      <point x="997" y="674"/>
      <point x="909" y="715" type="curve"/>
      <point x="1117" y="762"/>
      <point x="1217" y="900"/>
      <point x="1237" y="1062" type="curve" smooth="yes"/>
      <point x="1277" y="1389"/>
      <point x="1061" y="1456"/>
      <point x="778" y="1456" type="curve" smooth="yes"/>
      <point x="283" y="1456" type="line"/>
    </contour>
    <contour>
      <point x="433" y="825" type="line"/>
      <point x="486" y="1260" type="line"/>
      <point x="756" y="1260" type="line" smooth="yes"/>
      <point x="933" y="1260"/>
      <point x="1013" y="1220"/>
      <point x="992" y="1048" type="curve" smooth="yes"/>
      <point x="970" y="872"/>
      <point x="837" y="825"/>
      <point x="680" y="825" type="curve" smooth="yes"/>
    </contour>
  </outline>
</glyph>
<glyph name="S" format="1">
  <advance width="1244"/>
  <unicode hex="0053"/>
  <outline>
    <contour>
      <point x="711" y="1456" type="move" name="top"/>
    </contour>
    <contour>
      <point x="554" y="0" type="move" name="bot"/>
    </contour>
    <contour>
      <point x="525" y="-23" type="curve" smooth="yes"/>
      <point x="793" y="-23"/>
      <point x="1049" y="96"/>
      <point x="1085" y="387" type="curve" smooth="yes"/>
      <point x="1113" y="618"/>
      <point x="1034" y="728"/>
      <point x="750" y="827" type="curve" smooth="yes"/>
      <point x="708" y="842"/>
      <point x="659" y="858"/>
      <point x="620" y="871" type="curve"/>
      <point x="432" y="938"/>
      <point x="404" y="982"/>
      <point x="418" y="1100" type="curve" smooth="yes"/>
      <point x="435" y="1230"/>
      <point x="566" y="1286"/>
      <point x="723" y="1286" type="curve" smooth="yes"/>
      <point x="845" y="1286"/>
      <point x="967" y="1248"/>
      <point x="1042" y="1167" type="curve"/>
      <point x="1178" y="1321" type="line"/>
      <point x="1095" y="1413"/>
      <point x="984" y="1483"/>
      <point x="715" y="1483" type="curve" smooth="yes"/>
      <point x="438" y="1483"/>
      <point x="204" y="1352"/>
      <point x="172" y="1091" type="curve" smooth="yes"/>
      <point x="143" y="858"/>
      <point x="258" y="755"/>
      <point x="503" y="672" type="curve" smooth="yes"/>
      <point x="545" y="657"/>
      <point x="592" y="643"/>
      <point x="628" y="629" type="curve" smooth="yes"/>
      <point x="832" y="557"/>
      <point x="855" y="503"/>
      <point x="842" y="390" type="curve" smooth="yes"/>
      <point x="825" y="248"/>
      <point x="723" y="174"/>
      <point x="537" y="174" type="curve" smooth="yes"/>
      <point x="400" y="174"/>
      <point x="241" y="245"/>
      <point x="169" y="309" type="curve"/>
      <point x="49" y="143" type="line"/>
      <point x="122" y="60"/>
      <point x="307" y="-23"/>
    </contour>
  </outline>
</glyph>
<glyph name="T" format="1">
  <advance width="1167"/>
  <unicode hex="0054"/>
  <outline>
    <contour>
      <point x="679" y="1456" type="move" name="top"/>
    </contour>
    <contour>
      <point x="504" y="0" type="move" name="bot"/>
    </contour>
    <contour>
      <point x="591" y="742" type="move" name="mid"/>
    </contour>
    <contour>
      <point x="377" y="0" type="line"/>
      <point x="607" y="0" type="line"/>
      <point x="761" y="1260" type="line"/>
      <point x="1221" y="1260" type="line"/>
      <point x="1245" y="1456" type="line"/>
      <point x="100" y="1456" type="line"/>
      <point x="76" y="1260" type="line"/>
      <point x="531" y="1260" type="line"/>
    </contour>
  </outline>
</glyph>
<glyph name="U" format="1">
  <advance width="1503"/>
  <unicode hex="0055"/>
  <outline>
    <contour>
      <point x="840" y="1456" type="move" name="top"/>
    </contour>
    <contour>
      <point x="758" y="0" type="move" name="ogonek"/>
    </contour>
    <contour>
      <point x="660" y="-23" type="curve" smooth="yes"/>
      <point x="1117" y="-23"/>
      <point x="1279" y="249"/>
      <point x="1321" y="584" type="curve" smooth="yes"/>
      <point x="1428" y="1456" type="line"/>
      <point x="1198" y="1456" type="line"/>
      <point x="1090" y="575" type="line" smooth="yes"/>
      <point x="1053" y="279"/>
      <point x="899" y="174"/>
      <point x="685" y="174" type="curve" smooth="yes"/>
      <point x="467" y="174"/>
      <point x="342" y="280"/>
      <point x="379" y="576" type="curve" smooth="yes"/>
      <point x="487" y="1456" type="line"/>
      <point x="257" y="1456" type="line"/>
      <point x="150" y="583" type="line" smooth="yes"/>
      <point x="109" y="253"/>
      <point x="196" y="-23"/>
    </contour>
  </outline>
</glyph>
<glyph name="V" format="1">
  <advance width="1363"/>
  <unicode hex="0056"/>
  <outline>
    <contour>
      <point x="478" y="0" type="line"/>
      <point x="710" y="0" type="line"/>
      <point x="1437" y="1456" type="line"/>
      <point x="1194" y="1456" type="line"/>
      <point x="748" y="528" type="line"/>
      <point x="634" y="293" type="line"/>
      <point x="576" y="531" type="line"/>
      <point x="363" y="1456" type="line"/>
      <point x="104" y="1456" type="line"/>
    </contour>
  </outline>
</glyph>
<glyph name="W" format="1">
  <advance width="2052"/>
  <unicode hex="0057"/>
  <outline>
    <contour>
      <point x="1122" y="1456" type="move" name="top"/>
    </contour>
    <contour>
      <point x="335" y="0" type="line"/>
      <point x="598" y="0" type="line"/>
      <point x="1077" y="1141" type="line"/>
      <point x="1282" y="0" type="line"/>
      <point x="1549" y="0" type="line"/>
      <point x="2125" y="1456" type="line"/>
      <point x="1887" y="1456" type="line"/>
      <point x="1555" y="561" type="line"/>
      <point x="1451" y="269" type="line"/>
      <point x="1402" y="562" type="line"/>
      <point x="1234" y="1456" type="line"/>
      <point x="1010" y="1456" type="line"/>
      <point x="629" y="569" type="line"/>
      <point x="509" y="272" type="line"/>
      <point x="473" y="572" type="line"/>
      <point x="351" y="1456" type="line"/>
      <point x="105" y="1456" type="line"/>
    </contour>
  </outline>
</glyph>
<glyph name="X" format="1">
  <advance width="1345"/>
  <unicode hex="0058"/>
  <outline>
    <contour>
      <point x="-71" y="0" type="line"/>
      <point x="201" y="0" type="line"/>
      <point x="651" y="554" type="line"/>
      <point x="958" y="0" type="line"/>
      <point x="1240" y="0" type="line"/>
      <point x="817" y="747" type="line"/>
      <point x="1404" y="1456" type="line"/>
      <point x="1139" y="1456" type="line"/>
      <point x="709" y="932" type="line"/>
      <point x="420" y="1456" type="line"/>
      <point x="137" y="1456" type="line"/>
      <point x="542" y="738" type="line"/>
    </contour>
  </outline>
</glyph>
<glyph name="Y" format="1">
  <advance width="1258"/>
  <unicode hex="0059"/>
  <outline>
    <contour>
      <point x="742" y="1456" type="move" name="top"/>
    </contour>
    <contour>
      <point x="420" y="0" type="line"/>
      <point x="650" y="0" type="line"/>
      <point x="720" y="570" type="line"/>
      <point x="1353" y="1456" type="line"/>
      <point x="1089" y="1456" type="line"/>
      <point x="634" y="771" type="line"/>
      <point x="346" y="1456" type="line"/>
      <point x="87" y="1456" type="line"/>
      <point x="490" y="567" type="line"/>
    </contour>
  </outline>
</glyph>
<glyph name="Z" format="1">
  <advance width="1192"/>
  <unicode hex="005A"/>
  <outline>
    <contour>
      <point x="709" y="1456" type="move" name="top"/>
    </contour>
    <contour>
      <point x="-8" y="0" type="line"/>
      <point x="1011" y="0" type="line"/>
      <point x="1035" y="196" type="line"/>
      <point x="324" y="196" type="line"/>
      <point x="1177" y="1336" type="line"/>
      <point x="1192" y="1456" type="line"/>
      <point x="198" y="1456" type="line"/>
      <point x="174" y="1260" type="line"/>
      <point x="853" y="1260" type="line"/>
      <point x="7" y="124" type="line"/>
    </contour>
  </outline>
</glyph>
<glyph name="backslash" format="1">
  <advance width="762"/>
  <unicode hex="005C"/>
  <outline>
    <contour>
      <point x="491" y="-48" type="line"/>
      <point x="714" y="-48" type="line"/>
      <point x="259" y="1456" type="line"/>
      <point x="36" y="1456" type="line"/>
    </contour>
  </outline>
</glyph>
<glyph name="asciicircum" format="1">
  <advance width="1585"/>
  <unicode hex="005E"/>
  <outline>
    <contour>
      <point x="161" y="544" type="line"/>
      <point x="388" y="544" type="line"/>
      <point x="812" y="1205" type="line"/>
      <point x="1090" y="544" type="line"/>
      <point x="1313" y="544" type="line"/>
      <point x="917" y="1456" type="line"/>
      <point x="773" y="1456" type="line"/>
    </contour>
  </outline>
</glyph>
<glyph name="underscore" format="1">
  <advance width="984"/>
  <unicode hex="005F"/>
  <outline>
    <contour>
      <point x="-21" y="-260" type="line"/>
      <point x="984" y="-260" type="line"/>
      <point x="1005" y="-83" type="line"/>
      <point x="0" y="-83" type="line"/>
    </contour>
  </outline>
</glyph>
<glyph name="a" format="1">
  <advance width="1284"/>
  <unicode hex="0061"/>
  <outline>
    <contour>
      <point x="701" y="1026" type="move" name="top"/>
    </contour>
    <contour>
      <point x="961" y="0" type="move" name="ogonek"/>
    </contour>
    <contour>
      <point x="535" y="-23" type="curve" smooth="yes"/>
      <point x="679" y="-23"/>
      <point x="796" y="53"/>
      <point x="867" y="154" type="curve"/>
      <point x="848" y="0" type="line"/>
      <point x="1071" y="0" type="line"/>
      <point x="1197" y="1026" type="line"/>
      <point x="978" y="1026" type="line"/>
      <point x="961" y="892" type="line"/>
      <point x="912" y="984"/>
      <point x="813" y="1052"/>
      <point x="671" y="1052" type="curve" smooth="yes"/>
      <point x="348" y="1052"/>
      <point x="138" y="792"/>
      <point x="103" y="506" type="curve" smooth="yes"/>
      <point x="70" y="237"/>
      <point x="203" y="-23"/>
    </contour>
    <contour>
      <point x="589" y="159" type="curve" smooth="yes"/>
      <point x="377" y="159"/>
      <point x="304" y="316"/>
      <point x="328" y="515" type="curve" smooth="yes"/>
      <point x="353" y="719"/>
      <point x="466" y="871"/>
      <point x="673" y="871" type="curve" smooth="yes"/>
      <point x="874" y="871"/>
      <point x="948" y="720"/>
      <point x="923" y="517" type="curve" smooth="yes"/>
      <point x="898" y="311"/>
      <point x="793" y="159"/>
    </contour>
  </outline>
</glyph>
<glyph name="b" format="1">
  <advance width="1283"/>
  <unicode hex="0062"/>
  <outline>
    <contour>
      <point x="772" y="1026" type="move" name="top"/>
    </contour>
    <contour>
      <point x="613" y="-23" type="curve" smooth="yes"/>
      <point x="877" y="-23"/>
      <point x="1114" y="194"/>
      <point x="1154" y="524" type="curve" smooth="yes"/>
      <point x="1193" y="836"/>
      <point x="1042" y="1052"/>
      <point x="753" y="1052" type="curve" smooth="yes"/>
      <point x="552" y="1052"/>
      <point x="434" y="935"/>
      <point x="400" y="872" type="curve"/>
      <point x="473" y="1469" type="line"/>
      <point x="250" y="1469" type="line"/>
      <point x="103" y="272" type="line" smooth="yes"/>
      <point x="99" y="242"/>
      <point x="90" y="179"/>
      <point x="62" y="0" type="curve"/>
      <point x="291" y="0" type="line"/>
      <point x="308" y="145" type="line"/>
      <point x="345" y="59"/>
      <point x="456" y="-23"/>
    </contour>
    <contour>
      <point x="598" y="159" type="curve" smooth="yes"/>
      <point x="405" y="159"/>
      <point x="321" y="316"/>
      <point x="345" y="515" type="curve" smooth="yes"/>
      <point x="370" y="716"/>
      <point x="500" y="871"/>
      <point x="688" y="871" type="curve" smooth="yes"/>
      <point x="868" y="871"/>
      <point x="943" y="717"/>
      <point x="919" y="519" type="curve" smooth="yes"/>
      <point x="894" y="317"/>
      <point x="789" y="159"/>
    </contour>
  </outline>
</glyph>
<glyph name="c" format="1">
  <advance width="1073"/>
  <unicode hex="0063"/>
  <outline>
    <contour>
      <point x="689" y="1026" type="move" name="top"/>
    </contour>
    <contour>
      <point x="565" y="0" type="move" name="bot"/>
    </contour>
    <contour>
      <point x="568" y="-23" type="curve" smooth="yes"/>
      <point x="710" y="-23"/>
      <point x="825" y="15"/>
      <point x="939" y="90" type="curve"/>
      <point x="890" y="254" type="line"/>
      <point x="837" y="218"/>
      <point x="742" y="159"/>
      <point x="613" y="159" type="curve" smooth="yes"/>
      <point x="414" y="159"/>
      <point x="310" y="299"/>
      <point x="336" y="511" type="curve" smooth="yes"/>
      <point x="364" y="739"/>
      <point x="505" y="870"/>
      <point x="699" y="870" type="curve" smooth="yes"/>
      <point x="809" y="870"/>
      <point x="890" y="827"/>
      <point x="944" y="774" type="curve"/>
      <point x="1041" y="920" type="line"/>
      <point x="968" y="1007"/>
      <point x="852" y="1052"/>
      <point x="701" y="1052" type="curve" smooth="yes"/>
      <point x="376" y="1052"/>
      <point x="142" y="823"/>
      <point x="104" y="510" type="curve" smooth="yes"/>
      <point x="68" y="217"/>
      <point x="235" y="-23"/>
    </contour>
  </outline>
</glyph>
<glyph name="d" format="1">
  <advance width="1267"/>
  <unicode hex="0064"/>
  <outline>
    <contour>
      <point x="597" y="1026" type="move" name="top"/>
    </contour>
    <contour>
      <point x="961" y="1026" type="move" name="caron.alt"/>
    </contour>
    <contour>
      <point x="1044" y="1242" type="move" name="mid"/>
    </contour>
    <contour>
      <point x="483" y="-23" type="curve" smooth="yes"/>
      <point x="670" y="-23"/>
      <point x="780" y="78"/>
      <point x="817" y="147" type="curve"/>
      <point x="802" y="0" type="line"/>
      <point x="1030" y="0" type="line"/>
      <point x="1047" y="192"/>
      <point x="1050" y="232"/>
      <point x="1055" y="270" type="curve"/>
      <point x="1202" y="1469" type="line"/>
      <point x="979" y="1469" type="line"/>
      <point x="909" y="902" type="line"/>
      <point x="884" y="964"/>
      <point x="792" y="1052"/>
      <point x="630" y="1052" type="curve" smooth="yes"/>
      <point x="314" y="1052"/>
      <point x="115" y="809"/>
      <point x="78" y="508" type="curve" smooth="yes"/>
      <point x="38" y="182"/>
      <point x="218" y="-23"/>
    </contour>
    <contour>
      <point x="545" y="159" type="curve" smooth="yes"/>
      <point x="355" y="159"/>
      <point x="289" y="317"/>
      <point x="312" y="514" type="curve" smooth="yes"/>
      <point x="337" y="716"/>
      <point x="448" y="871"/>
      <point x="634" y="871" type="curve" smooth="yes"/>
      <point x="820" y="871"/>
      <point x="892" y="715"/>
      <point x="868" y="518" type="curve" smooth="yes"/>
      <point x="843" y="316"/>
      <point x="738" y="159"/>
    </contour>
  </outline>
</glyph>
<glyph name="e" format="1">
  <advance width="1183"/>
  <unicode hex="0065"/>
  <outline>
    <contour>
      <point x="695" y="1026" type="move" name="top"/>
    </contour>
    <contour>
      <point x="723" y="0" type="move" name="ogonek"/>
    </contour>
    <contour>
      <point x="585" y="0" type="move" name="bot"/>
    </contour>
    <contour>
      <point x="584" y="-23" type="curve" smooth="yes"/>
      <point x="740" y="-23"/>
      <point x="874" y="19"/>
      <point x="1002" y="107" type="curve"/>
      <point x="959" y="271" type="line"/>
      <point x="850" y="195"/>
      <point x="738" y="159"/>
      <point x="623" y="159" type="curve" smooth="yes"/>
      <point x="437" y="159"/>
      <point x="314" y="259"/>
      <point x="334" y="477" type="curve"/>
      <point x="1064" y="477" type="line"/>
      <point x="1070" y="497"/>
      <point x="1073" y="514"/>
      <point x="1074" y="523" type="curve" smooth="yes"/>
      <point x="1110" y="820"/>
      <point x="1002" y="1052"/>
      <point x="686" y="1052" type="curve" smooth="yes"/>
      <point x="366" y="1052"/>
      <point x="140" y="809"/>
      <point x="104" y="512" type="curve" smooth="yes"/>
      <point x="65" y="195"/>
      <point x="244" y="-23"/>
    </contour>
    <contour>
      <point x="356" y="628" type="line"/>
      <point x="405" y="783"/>
      <point x="524" y="877"/>
      <point x="675" y="877" type="curve" smooth="yes"/>
      <point x="808" y="877"/>
      <point x="889" y="792"/>
      <point x="887" y="628" type="curve"/>
    </contour>
  </outline>
</glyph>
<glyph name="f" format="1">
  <advance width="784"/>
  <unicode hex="0066"/>
  <outline>
    <contour>
      <point x="466" y="1456" type="move" name="top"/>
    </contour>
    <contour>
      <point x="166" y="0" type="line"/>
      <point x="389" y="0" type="line"/>
      <point x="497" y="876" type="line"/>
      <point x="733" y="876" type="line"/>
      <point x="752" y="1026" type="line"/>
      <point x="515" y="1026" type="line"/>
      <point x="523" y="1089" type="line" smooth="yes"/>
      <point x="546" y="1278"/>
      <point x="569" y="1310"/>
      <point x="789" y="1310" type="curve"/>
      <point x="817" y="1483" type="line"/>
      <point x="766" y="1483" type="line" smooth="yes"/>
      <point x="385" y="1483"/>
      <point x="333" y="1360"/>
      <point x="299" y="1080" type="curve" smooth="yes"/>
      <point x="292" y="1026" type="line"/>
      <point x="105" y="1026" type="line"/>
      <point x="86" y="876" type="line"/>
      <point x="273" y="876" type="line"/>
    </contour>
  </outline>
</glyph>
<glyph name="g" format="1">
  <advance width="1253"/>
  <unicode hex="0067"/>
  <outline>
    <contour>
      <point x="666" y="1026" type="move" name="top"/>
    </contour>
    <contour>
      <point x="486" y="-414" type="curve" smooth="yes"/>
      <point x="906" y="-414"/>
      <point x="1047" y="-129"/>
      <point x="1081" y="147" type="curve" smooth="yes"/>
      <point x="1150" y="708" type="line" smooth="yes"/>
      <point x="1170" y="870"/>
      <point x="1205" y="1026"/>
      <point x="1205" y="1026" type="curve" smooth="yes"/>
      <point x="970" y="1026" type="line"/>
      <point x="954" y="900" type="line"/>
      <point x="913" y="980"/>
      <point x="826" y="1052"/>
      <point x="676" y="1052" type="curve" smooth="yes"/>
      <point x="353" y="1052"/>
      <point x="165" y="811"/>
      <point x="128" y="515" type="curve" smooth="yes"/>
      <point x="90" y="203"/>
      <point x="271" y="12"/>
      <point x="559" y="12" type="curve" smooth="yes"/>
      <point x="715" y="12"/>
      <point x="809" y="90"/>
      <point x="862" y="156" type="curve"/>
      <point x="850" y="59" type="line" smooth="yes"/>
      <point x="826" y="-138"/>
      <point x="693" y="-232"/>
      <point x="496" y="-232" type="curve" smooth="yes"/>
      <point x="389" y="-232"/>
      <point x="283" y="-209"/>
      <point x="169" y="-138" type="curve"/>
      <point x="108" y="-332" type="line"/>
      <point x="226" y="-388"/>
      <point x="349" y="-414"/>
    </contour>
    <contour>
      <point x="596" y="183" type="curve" smooth="yes"/>
      <point x="412" y="183"/>
      <point x="337" y="310"/>
      <point x="362" y="517" type="curve" smooth="yes"/>
      <point x="386" y="714"/>
      <point x="502" y="871"/>
      <point x="688" y="871" type="curve" smooth="yes"/>
      <point x="868" y="871"/>
      <point x="941" y="727"/>
      <point x="916" y="528" type="curve" smooth="yes"/>
      <point x="893" y="344"/>
      <point x="801" y="183"/>
    </contour>
  </outline>
</glyph>
<glyph name="h" format="1">
  <advance width="1227"/>
  <unicode hex="0068"/>
  <outline>
    <contour>
      <point x="775" y="1026" type="move" name="top"/>
    </contour>
    <contour>
      <point x="354" y="1242" type="move" name="mid"/>
    </contour>
    <contour>
      <point x="62" y="0" type="line"/>
      <point x="286" y="0" type="line"/>
      <point x="362" y="620" type="line" smooth="yes"/>
      <point x="378" y="753"/>
      <point x="535" y="871"/>
      <point x="681" y="871" type="curve" smooth="yes"/>
      <point x="813" y="871"/>
      <point x="868" y="792"/>
      <point x="843" y="593" type="curve" smooth="yes"/>
      <point x="771" y="0" type="line"/>
      <point x="995" y="0" type="line"/>
      <point x="1067" y="589" type="line" smooth="yes"/>
      <point x="1093" y="796"/>
      <point x="1050" y="1052"/>
      <point x="738" y="1052" type="curve" smooth="yes"/>
      <point x="618" y="1052"/>
      <point x="464" y="987"/>
      <point x="394" y="883" type="curve"/>
      <point x="466" y="1469" type="line"/>
      <point x="242" y="1469" type="line"/>
    </contour>
  </outline>
</glyph>
<glyph name="j" format="1">
  <advance width="544"/>
  <unicode hex="006A"/>
  <outline>
    <contour>
      <point x="270" y="1246" type="line"/>
      <point x="492" y="1246" type="line"/>
      <point x="518" y="1456" type="line"/>
      <point x="296" y="1456" type="line"/>
    </contour>
    <component base="dotlessj"/>
  </outline>
</glyph>
<glyph name="l" format="1">
  <advance width="548"/>
  <unicode hex="006C"/>
  <outline>
    <contour>
      <point x="390" y="1456" type="move" name="top"/>
    </contour>
    <contour>
      <point x="296" y="1026" type="move" name="caron.alt"/>
    </contour>
    <contour>
      <point x="277" y="757" type="move" name="mid"/>
    </contour>
    <contour>
      <point x="93" y="0" type="line"/>
      <point x="316" y="0" type="line"/>
      <point x="496" y="1469" type="line"/>
      <point x="274" y="1469" type="line"/>
    </contour>
  </outline>
</glyph>
<glyph name="m" format="1">
  <advance width="1853"/>
  <unicode hex="006D"/>
  <outline>
    <contour>
      <point x="1047" y="1026" type="move" name="top"/>
    </contour>
    <contour>
      <point x="101" y="0" type="line"/>
      <point x="325" y="0" type="line"/>
      <point x="402" y="617" type="line" smooth="yes"/>
      <point x="418" y="747"/>
      <point x="544" y="871"/>
      <point x="696" y="871" type="curve" smooth="yes"/>
      <point x="835" y="871"/>
      <point x="855" y="743"/>
      <point x="841" y="629" type="curve" smooth="yes"/>
      <point x="763" y="0" type="line"/>
      <point x="987" y="0" type="line"/>
      <point x="1059" y="583" type="line" smooth="yes"/>
      <point x="1077" y="730"/>
      <point x="1214" y="871"/>
      <point x="1366" y="871" type="curve" smooth="yes"/>
      <point x="1489" y="871"/>
      <point x="1513" y="746"/>
      <point x="1497" y="612" type="curve" smooth="yes"/>
      <point x="1421" y="0" type="line"/>
      <point x="1645" y="0" type="line"/>
      <point x="1723" y="629" type="line" smooth="yes"/>
      <point x="1755" y="887"/>
      <point x="1656" y="1052"/>
      <point x="1410" y="1052" type="curve" smooth="yes"/>
      <point x="1252" y="1052"/>
      <point x="1125" y="968"/>
      <point x="1036" y="850" type="curve"/>
      <point x="996" y="983"/>
      <point x="886" y="1052"/>
      <point x="754" y="1052" type="curve" smooth="yes"/>
      <point x="626" y="1052"/>
      <point x="493" y="983"/>
      <point x="429" y="880" type="curve"/>
      <point x="447" y="1026" type="line"/>
      <point x="212" y="1026" type="line"/>
      <point x="207" y="953"/>
      <point x="207" y="864"/>
      <point x="189" y="714" type="curve" smooth="yes"/>
    </contour>
  </outline>
</glyph>
<glyph name="n" format="1">
  <advance width="1234"/>
  <unicode hex="006E"/>
  <outline>
    <contour>
      <point x="744" y="1026" type="move" name="top"/>
    </contour>
    <contour>
      <point x="589" y="0" type="move" name="bot"/>
    </contour>
    <contour>
      <point x="101" y="0" type="line"/>
      <point x="325" y="0" type="line"/>
      <point x="402" y="626" type="line" smooth="yes"/>
      <point x="419" y="760"/>
      <point x="587" y="871"/>
      <point x="709" y="871" type="curve" smooth="yes"/>
      <point x="864" y="871"/>
      <point x="899" y="778"/>
      <point x="875" y="582" type="curve" smooth="yes"/>
      <point x="803" y="0" type="line"/>
      <point x="1027" y="0" type="line"/>
      <point x="1098" y="575" type="line" smooth="yes"/>
      <point x="1140" y="914"/>
      <point x="1024" y="1052"/>
      <point x="777" y="1052" type="curve" smooth="yes"/>
      <point x="662" y="1052"/>
      <point x="517" y="995"/>
      <point x="429" y="881" type="curve"/>
      <point x="446" y="1026" type="line"/>
      <point x="211" y="1026" type="line" smooth="yes"/>
      <point x="211" y="1026"/>
      <point x="210" y="886"/>
      <point x="184" y="677" type="curve" smooth="yes"/>
    </contour>
  </outline>
</glyph>
<glyph name="o" format="1">
  <advance width="1274"/>
  <unicode hex="006F"/>
  <outline>
    <contour>
      <point x="706" y="1026" type="move" name="top"/>
    </contour>
    <contour>
      <point x="591" y="0" type="move" name="ogonek"/>
    </contour>
    <contour>
      <point x="595" y="159" type="curve" smooth="yes"/>
      <point x="386" y="159"/>
      <point x="314" y="317"/>
      <point x="338" y="514" type="curve" smooth="yes"/>
      <point x="363" y="716"/>
      <point x="479" y="871"/>
      <point x="682" y="871" type="curve" smooth="yes"/>
      <point x="884" y="871"/>
      <point x="960" y="716"/>
      <point x="936" y="514" type="curve" smooth="yes"/>
      <point x="911" y="317"/>
      <point x="802" y="159"/>
    </contour>
    <contour>
      <point x="574" y="-23" type="curve" smooth="yes"/>
      <point x="923" y="-23"/>
      <point x="1133" y="218"/>
      <point x="1170" y="511" type="curve" smooth="yes"/>
      <point x="1207" y="818"/>
      <point x="1062" y="1052"/>
      <point x="707" y="1052" type="curve" smooth="yes"/>
      <point x="357" y="1052"/>
      <point x="141" y="817"/>
      <point x="104" y="513" type="curve" smooth="yes"/>
      <point x="68" y="216"/>
      <point x="220" y="-23"/>
    </contour>
  </outline>
</glyph>
<glyph name="p" format="1">
  <advance width="1267"/>
  <unicode hex="0070"/>
  <outline>
    <contour>
      <point x="767" y="1026" type="move" name="top"/>
    </contour>
    <contour>
      <point x="77" y="-405" type="line"/>
      <point x="298" y="-405" type="line"/>
      <point x="366" y="149" type="line"/>
      <point x="378" y="81"/>
      <point x="487" y="-23"/>
      <point x="660" y="-23" type="curve" smooth="yes"/>
      <point x="949" y="-23"/>
      <point x="1153" y="232"/>
      <point x="1188" y="525" type="curve" smooth="yes"/>
      <point x="1224" y="816"/>
      <point x="1081" y="1052"/>
      <point x="801" y="1052" type="curve" smooth="yes"/>
      <point x="628" y="1052"/>
      <point x="488" y="948"/>
      <point x="454" y="867" type="curve"/>
      <point x="474" y="1026" type="line"/>
      <point x="237" y="1026" type="line"/>
      <point x="231" y="920"/>
      <point x="224" y="797"/>
      <point x="213" y="703" type="curve" smooth="yes"/>
    </contour>
    <contour>
      <point x="636" y="159" type="curve" smooth="yes"/>
      <point x="445" y="159"/>
      <point x="376" y="316"/>
      <point x="401" y="511" type="curve" smooth="yes"/>
      <point x="426" y="715"/>
      <point x="537" y="871"/>
      <point x="724" y="871" type="curve" smooth="yes"/>
      <point x="909" y="871"/>
      <point x="979" y="717"/>
      <point x="954" y="516" type="curve" smooth="yes"/>
      <point x="930" y="318"/>
      <point x="826" y="159"/>
    </contour>
  </outline>
</glyph>
<glyph name="q" format="1">
  <advance width="1256"/>
  <unicode hex="0071"/>
  <outline>
    <contour>
      <point x="791" y="-405" type="line"/>
      <point x="1012" y="-405" type="line"/>
      <point x="1154" y="754" type="line" smooth="yes"/>
      <point x="1163" y="826"/>
      <point x="1182" y="950"/>
      <point x="1197" y="1026" type="curve"/>
      <point x="968" y="1026" type="line"/>
      <point x="953" y="904" type="line"/>
      <point x="888" y="1001"/>
      <point x="784" y="1052"/>
      <point x="676" y="1052" type="curve" smooth="yes"/>
      <point x="368" y="1052"/>
      <point x="163" y="815"/>
      <point x="127" y="522" type="curve" smooth="yes"/>
      <point x="91" y="230"/>
      <point x="226" y="-23"/>
      <point x="540" y="-23" type="curve" smooth="yes"/>
      <point x="660" y="-23"/>
      <point x="772" y="35"/>
      <point x="854" y="108" type="curve"/>
    </contour>
    <contour>
      <point x="592" y="159" type="curve" smooth="yes"/>
      <point x="402" y="159"/>
      <point x="336" y="317"/>
      <point x="361" y="514" type="curve" smooth="yes"/>
      <point x="385" y="716"/>
      <point x="495" y="871"/>
      <point x="681" y="871" type="curve" smooth="yes"/>
      <point x="866" y="871"/>
      <point x="939" y="717"/>
      <point x="914" y="519" type="curve" smooth="yes"/>
      <point x="889" y="318"/>
      <point x="784" y="159"/>
    </contour>
  </outline>
</glyph>
<glyph name="r" format="1">
  <advance width="798"/>
  <unicode hex="0072"/>
  <outline>
    <contour>
      <point x="553" y="1026" type="move" name="top"/>
    </contour>
    <contour>
      <point x="251" y="0" type="move" name="bot"/>
    </contour>
    <contour>
      <point x="103" y="0" type="line"/>
      <point x="328" y="0" type="line"/>
      <point x="399" y="577" type="line" smooth="yes"/>
      <point x="422" y="764"/>
      <point x="538" y="860"/>
      <point x="677" y="860" type="curve" smooth="yes"/>
      <point x="717" y="860"/>
      <point x="758" y="853"/>
      <point x="795" y="840" type="curve"/>
      <point x="819" y="1037" type="line"/>
      <point x="784" y="1047"/>
      <point x="750" y="1052"/>
      <point x="717" y="1052" type="curve" smooth="yes"/>
      <point x="607" y="1052"/>
      <point x="515" y="987"/>
      <point x="433" y="881" type="curve"/>
      <point x="451" y="1026" type="line"/>
      <point x="213" y="1026" type="line" smooth="yes"/>
      <point x="213" y="1026"/>
      <point x="210" y="864"/>
      <point x="198" y="770" type="curve" smooth="yes"/>
    </contour>
  </outline>
</glyph>
<glyph name="s" format="1">
  <advance width="988"/>
  <unicode hex="0073"/>
  <outline>
    <contour>
      <point x="561" y="1026" type="move" name="top"/>
    </contour>
    <contour>
      <point x="467" y="0" type="move" name="bot"/>
    </contour>
    <contour>
      <point x="464" y="-23" type="curve" smooth="yes"/>
      <point x="638" y="-23"/>
      <point x="843" y="55"/>
      <point x="871" y="288" type="curve" smooth="yes"/>
      <point x="895" y="481"/>
      <point x="786" y="539"/>
      <point x="625" y="598" type="curve" smooth="yes"/>
      <point x="614" y="602"/>
      <point x="537" y="630"/>
      <point x="529" y="633" type="curve" smooth="yes"/>
      <point x="396" y="682"/>
      <point x="367" y="701"/>
      <point x="375" y="767" type="curve"/>
      <point x="383" y="838"/>
      <point x="450" y="873"/>
      <point x="565" y="873" type="curve" smooth="yes"/>
      <point x="665" y="873"/>
      <point x="777" y="830"/>
      <point x="833" y="799" type="curve"/>
      <point x="911" y="955" type="line"/>
      <point x="833" y="1010"/>
      <point x="709" y="1050"/>
      <point x="565" y="1050" type="curve" smooth="yes"/>
      <point x="375" y="1050"/>
      <point x="181" y="969"/>
      <point x="156" y="759" type="curve" smooth="yes"/>
      <point x="133" y="578"/>
      <point x="243" y="520"/>
      <point x="394" y="466" type="curve" smooth="yes"/>
      <point x="486" y="433" type="line" smooth="yes"/>
      <point x="640" y="379"/>
      <point x="670" y="354"/>
      <point x="662" y="287" type="curve" smooth="yes"/>
      <point x="650" y="188"/>
      <point x="571" y="156"/>
      <point x="468" y="156" type="curve" smooth="yes"/>
      <point x="342" y="156"/>
      <point x="214" y="211"/>
      <point x="146" y="268" type="curve"/>
      <point x="68" y="104" type="line"/>
      <point x="126" y="53"/>
      <point x="264" y="-23"/>
    </contour>
  </outline>
</glyph>
<glyph name="t" format="1">
  <advance width="820"/>
  <unicode hex="0074"/>
  <outline>
    <contour>
      <point x="429" y="1320" type="move" name="top"/>
    </contour>
    <contour>
      <point x="336" y="1316" type="move" name="caron.alt"/>
    </contour>
    <contour>
      <point x="428" y="0" type="move" name="bot"/>
    </contour>
    <contour>
      <point x="353" y="603" type="move" name="mid"/>
    </contour>
    <contour>
      <point x="652" y="1" type="line"/>
      <point x="673" y="173" type="line"/>
      <point x="443" y="173"/>
      <point x="391" y="192"/>
      <point x="412" y="355" type="curve" smooth="yes"/>
      <point x="475" y="876" type="line"/>
      <point x="755" y="876" type="line"/>
      <point x="774" y="1026" type="line"/>
      <point x="494" y="1026" type="line"/>
      <point x="532" y="1341" type="line"/>
      <point x="308" y="1276" type="line"/>
      <point x="277" y="1026" type="line"/>
      <point x="67" y="1026" type="line"/>
      <point x="48" y="876" type="line"/>
      <point x="252" y="876" type="line"/>
      <point x="189" y="368" type="line" smooth="yes"/>
      <point x="151" y="58"/>
      <point x="282" y="1"/>
      <point x="556" y="1" type="curve" smooth="yes"/>
    </contour>
  </outline>
</glyph>
<glyph name="u" format="1">
  <advance width="1206"/>
  <unicode hex="0075"/>
  <outline>
    <contour>
      <point x="665" y="1026" type="move" name="top"/>
    </contour>
    <contour>
      <point x="894" y="0" type="move" name="ogonek"/>
    </contour>
    <contour>
      <point x="474" y="-23" type="curve" smooth="yes"/>
      <point x="648" y="-23"/>
      <point x="747" y="91"/>
      <point x="782" y="156" type="curve"/>
      <point x="767" y="0" type="line"/>
      <point x="997" y="0" type="line"/>
      <point x="998" y="14"/>
      <point x="1012" y="204"/>
      <point x="1020" y="268" type="curve" smooth="yes"/>
      <point x="1113" y="1026" type="line"/>
      <point x="889" y="1026" type="line"/>
      <point x="814" y="413" type="line" smooth="yes"/>
      <point x="793" y="244"/>
      <point x="697" y="159"/>
      <point x="539" y="159" type="curve" smooth="yes"/>
      <point x="404" y="159"/>
      <point x="331" y="230"/>
      <point x="349" y="384" type="curve" smooth="yes"/>
      <point x="428" y="1026" type="line"/>
      <point x="206" y="1026" type="line"/>
      <point x="127" y="382" type="line" smooth="yes"/>
      <point x="98" y="146"/>
      <point x="208" y="-23"/>
    </contour>
  </outline>
</glyph>
<glyph name="v" format="1">
  <advance width="1102"/>
  <unicode hex="0076"/>
  <outline>
    <contour>
      <point x="384" y="0" type="line"/>
      <point x="591" y="0" type="line"/>
      <point x="1149" y="1026" type="line"/>
      <point x="908" y="1026" type="line"/>
      <point x="628" y="457" type="line"/>
      <point x="527" y="243" type="line"/>
      <point x="472" y="457" type="line"/>
      <point x="326" y="1026" type="line"/>
      <point x="78" y="1026" type="line"/>
    </contour>
  </outline>
</glyph>
<glyph name="w" format="1">
  <advance width="1669"/>
  <unicode hex="0077"/>
  <outline>
    <contour>
      <point x="921" y="1026" type="move" name="top"/>
    </contour>
    <contour>
      <point x="319" y="0" type="line"/>
      <point x="513" y="0" type="line"/>
      <point x="799" y="600" type="line"/>
      <point x="865" y="738" type="line"/>
      <point x="893" y="600" type="line"/>
      <point x="1020" y="0" type="line"/>
      <point x="1213" y="0" type="line"/>
      <point x="1710" y="1026" type="line"/>
      <point x="1499" y="1026" type="line"/>
      <point x="1222" y="393" type="line"/>
      <point x="1167" y="269" type="line"/>
      <point x="1142" y="397" type="line"/>
      <point x="1017" y="1026" type="line"/>
      <point x="815" y="1026" type="line"/>
      <point x="533" y="413" type="line"/>
      <point x="468" y="271" type="line"/>
      <point x="439" y="419" type="line"/>
      <point x="323" y="1026" type="line"/>
      <point x="85" y="1026" type="line"/>
    </contour>
  </outline>
</glyph>
<glyph name="y" format="1">
  <advance width="1098"/>
  <unicode hex="0079"/>
  <outline>
    <contour>
      <point x="665" y="1026" type="move" name="top"/>
    </contour>
    <contour>
      <point x="146" y="-441" type="line"/>
      <point x="329" y="-389"/>
      <point x="504" y="-266"/>
      <point x="611" y="-56" type="curve" smooth="yes"/>
      <point x="1160" y="1026" type="line"/>
      <point x="933" y="1026" type="line"/>
      <point x="567" y="258" type="line"/>
      <point x="356" y="1026" type="line"/>
      <point x="124" y="1026" type="line"/>
      <point x="429" y="19" type="line"/>
      <point x="409" y="-31" type="line" smooth="yes"/>
      <point x="363" y="-136"/>
      <point x="268" y="-219"/>
      <point x="71" y="-289" type="curve"/>
    </contour>
  </outline>
</glyph>
<glyph name="z" format="1">
  <advance width="987"/>
  <unicode hex="007A"/>
  <outline>
    <contour>
      <point x="597" y="1026" type="move" name="top"/>
    </contour>
    <contour>
      <point x="40" y="0" type="line"/>
      <point x="852" y="0" type="line"/>
      <point x="874" y="179" type="line"/>
      <point x="349" y="179" type="line"/>
      <point x="940" y="909" type="line"/>
      <point x="954" y="1026" type="line"/>
      <point x="185" y="1026" type="line"/>
      <point x="163" y="846" type="line"/>
      <point x="643" y="846" type="line"/>
      <point x="54" y="119" type="line"/>
    </contour>
  </outline>
</glyph>
<glyph name="braceleft" format="1">
  <advance width="857"/>
  <unicode hex="007B"/>
  <outline>
    <contour>
      <point x="610" y="1146" type="line"/>
      <point x="629" y="1305"/>
      <point x="680" y="1338"/>
      <point x="848" y="1339" type="curve"/>
      <point x="869" y="1514" type="line"/>
      <point x="512" y="1514"/>
      <point x="413" y="1404"/>
      <point x="382" y="1158" type="curve" smooth="yes"/>
      <point x="354" y="925" type="line" smooth="yes"/>
      <point x="337" y="792"/>
      <point x="278" y="737"/>
      <point x="148" y="735" type="curve"/>
      <point x="130" y="586" type="line"/>
      <point x="265" y="584"/>
      <point x="305" y="527"/>
      <point x="288" y="388" type="curve" smooth="yes"/>
      <point x="260" y="154" type="line" smooth="yes"/>
      <point x="229" y="-94"/>
      <point x="311" y="-193"/>
      <point x="659" y="-194" type="curve"/>
      <point x="680" y="-19" type="line"/>
      <point x="524" y="-18"/>
      <point x="469" y="-2"/>
      <point x="489" y="162" type="curve" smooth="yes"/>
      <point x="518" y="400" type="line" smooth="yes"/>
      <point x="535" y="538"/>
      <point x="476" y="633"/>
      <point x="346" y="659" type="curve"/>
      <point x="479" y="680"/>
      <point x="564" y="768"/>
      <point x="580" y="905" type="curve" smooth="yes"/>
    </contour>
  </outline>
</glyph>
<glyph name="braceright" format="1">
  <advance width="862"/>
  <unicode hex="007D"/>
  <outline>
    <contour>
      <point x="3" y="-194" type="line"/>
      <point x="360" y="-194"/>
      <point x="459" y="-83"/>
      <point x="490" y="163" type="curve" smooth="yes"/>
      <point x="518" y="396" type="line" smooth="yes"/>
      <point x="535" y="529"/>
      <point x="594" y="584"/>
      <point x="724" y="586" type="curve"/>
      <point x="742" y="735" type="line"/>
      <point x="607" y="737"/>
      <point x="567" y="794"/>
      <point x="584" y="933" type="curve" smooth="yes"/>
      <point x="613" y="1167" type="line" smooth="yes"/>
      <point x="644" y="1415"/>
      <point x="561" y="1513"/>
      <point x="213" y="1514" type="curve"/>
      <point x="193" y="1340" type="line"/>
      <point x="348" y="1339"/>
      <point x="403" y="1323"/>
      <point x="383" y="1159" type="curve" smooth="yes"/>
      <point x="354" y="921" type="line" smooth="yes"/>
      <point x="337" y="783"/>
      <point x="396" y="688"/>
      <point x="526" y="663" type="curve"/>
      <point x="394" y="641"/>
      <point x="309" y="553"/>
      <point x="292" y="416" type="curve" smooth="yes"/>
      <point x="262" y="175" type="line" smooth="yes"/>
      <point x="243" y="16"/>
      <point x="192" y="-17"/>
      <point x="25" y="-18" type="curve"/>
    </contour>
  </outline>
</glyph>
<glyph name="cent" format="1">
  <advance width="1058"/>
  <unicode hex="00A2"/>
  <outline>
    <contour>
      <point x="507" y="-230" type="line"/>
      <point x="615" y="-230" type="line"/>
      <point x="796" y="1250" type="line"/>
      <point x="689" y="1250" type="line"/>
    </contour>
    <component base="c"/>
  </outline>
</glyph>
<glyph name="sterling" format="1">
  <advance width="1235"/>
  <unicode hex="00A3"/>
  <outline>
    <contour>
      <point x="61" y="0" type="line"/>
      <point x="1017" y="0" type="line"/>
      <point x="1040" y="186" type="line"/>
      <point x="383" y="186" type="line"/>
      <point x="452" y="262"/>
      <point x="521" y="408"/>
      <point x="545" y="606" type="curve" smooth="yes"/>
      <point x="553" y="673" type="line"/>
      <point x="901" y="673" type="line"/>
      <point x="921" y="834" type="line"/>
      <point x="573" y="834" type="line"/>
      <point x="588" y="961" type="line" smooth="yes"/>
      <point x="617" y="1196"/>
      <point x="707" y="1297"/>
      <point x="887" y="1298" type="curve" smooth="yes"/>
      <point x="983" y="1299"/>
      <point x="1051" y="1270"/>
      <point x="1117" y="1237" type="curve"/>
      <point x="1194" y="1409" type="line"/>
      <point x="1119" y="1457"/>
      <point x="1028" y="1482"/>
      <point x="895" y="1482" type="curve" smooth="yes"/>
      <point x="510" y="1482"/>
      <point x="394" y="1225"/>
      <point x="355" y="910" type="curve" smooth="yes"/>
      <point x="346" y="834" type="line"/>
      <point x="161" y="834" type="line"/>
      <point x="141" y="673" type="line"/>
      <point x="328" y="673" type="line"/>
      <point x="321" y="610" type="line" smooth="yes"/>
      <point x="288" y="346"/>
      <point x="179" y="246"/>
      <point x="82" y="172" type="curve"/>
    </contour>
  </outline>
</glyph>
<glyph name="currency" format="1">
  <advance width="1218"/>
  <unicode hex="00A4"/>
  <outline>
    <contour>
      <point x="111" y="543" type="line"/>
      <point x="321" y="730" type="line"/>
      <point x="382" y="673"/>
      <point x="466" y="639"/>
      <point x="562" y="639" type="curve" smooth="yes"/>
      <point x="658" y="639"/>
      <point x="750" y="673"/>
      <point x="825" y="729" type="curve"/>
      <point x="988" y="543" type="line"/>
      <point x="1045" y="594" type="line"/>
      <point x="882" y="779" type="line"/>
      <point x="946" y="846"/>
      <point x="990" y="931"/>
      <point x="1001" y="1024" type="curve" smooth="yes"/>
      <point x="1013" y="1122"/>
      <point x="988" y="1210"/>
      <point x="936" y="1278" type="curve"/>
      <point x="1153" y="1471" type="line"/>
      <point x="1108" y="1522" type="line"/>
      <point x="889" y="1327" type="line"/>
      <point x="828" y="1378"/>
      <point x="748" y="1409"/>
      <point x="656" y="1409" type="curve" smooth="yes"/>
      <point x="564" y="1409"/>
      <point x="475" y="1378"/>
      <point x="403" y="1326" type="curve"/>
      <point x="230" y="1522" type="line"/>
      <point x="173" y="1471" type="line"/>
      <point x="344" y="1276" type="line"/>
      <point x="277" y="1209"/>
      <point x="230" y="1121"/>
      <point x="218" y="1024" type="curve" smooth="yes"/>
      <point x="207" y="931"/>
      <point x="229" y="847"/>
      <point x="276" y="781" type="curve"/>
      <point x="66" y="594" type="line"/>
    </contour>
    <contour>
      <point x="569" y="710" type="curve" smooth="yes"/>
      <point x="395" y="710"/>
      <point x="284" y="848"/>
      <point x="306" y="1022" type="curve" smooth="yes"/>
      <point x="327" y="1196"/>
      <point x="472" y="1331"/>
      <point x="646" y="1331" type="curve" smooth="yes"/>
      <point x="820" y="1331"/>
      <point x="931" y="1196"/>
      <point x="910" y="1022" type="curve" smooth="yes"/>
      <point x="888" y="848"/>
      <point x="743" y="710"/>
    </contour>
  </outline>
</glyph>
<glyph name="yen" format="1">
  <advance width="1258"/>
  <unicode hex="00A5"/>
  <outline>
    <contour>
      <point x="104" y="269" type="line"/>
      <point x="1047" y="269" type="line"/>
      <point x="1065" y="417" type="line"/>
      <point x="658" y="417" type="line"/>
      <point x="674" y="549" type="line"/>
      <point x="1080" y="549" type="line"/>
      <point x="1098" y="703" type="line"/>
      <point x="157" y="703" type="line"/>
      <point x="139" y="549" type="line"/>
      <point x="536" y="549" type="line"/>
      <point x="520" y="417" type="line"/>
      <point x="123" y="417" type="line"/>
    </contour>
    <component base="Y"/>
  </outline>
</glyph>
<glyph name="section" format="1">
  <advance width="1090"/>
  <unicode hex="00A7"/>
  <outline>
    <contour>
      <point x="419" y="-67" type="curve" smooth="yes"/>
      <point x="643" y="-67"/>
      <point x="843" y="36"/>
      <point x="869" y="250" type="curve" smooth="yes"/>
      <point x="883" y="358"/>
      <point x="833" y="432"/>
      <point x="756" y="479" type="curve"/>
      <point x="849" y="542"/>
      <point x="923" y="624"/>
      <point x="935" y="722" type="curve" smooth="yes"/>
      <point x="953" y="866"/>
      <point x="836" y="939"/>
      <point x="700" y="1010" type="curve" smooth="yes"/>
      <point x="560" y="1077"/>
      <point x="489" y="1133"/>
      <point x="497" y="1199" type="curve" smooth="yes"/>
      <point x="507" y="1279"/>
      <point x="598" y="1314"/>
      <point x="696" y="1314" type="curve" smooth="yes"/>
      <point x="783" y="1314"/>
      <point x="874" y="1284"/>
      <point x="937" y="1265" type="curve"/>
      <point x="958" y="1437" type="line"/>
      <point x="869" y="1468"/>
      <point x="777" y="1481"/>
      <point x="684" y="1481" type="curve" smooth="yes"/>
      <point x="474" y="1481"/>
      <point x="286" y="1388"/>
      <point x="261" y="1187" type="curve" smooth="yes"/>
      <point x="248" y="1079"/>
      <point x="293" y="1010"/>
      <point x="367" y="951" type="curve"/>
      <point x="271" y="899"/>
      <point x="191" y="810"/>
      <point x="179" y="712" type="curve" smooth="yes"/>
      <point x="165" y="593"/>
      <point x="236" y="503"/>
      <point x="360" y="442" type="curve" smooth="yes"/>
      <point x="569" y="338"/>
      <point x="642" y="305"/>
      <point x="635" y="244" type="curve" smooth="yes"/>
      <point x="624" y="157"/>
      <point x="540" y="112"/>
      <point x="429" y="112" type="curve" smooth="yes"/>
      <point x="337" y="112"/>
      <point x="225" y="137"/>
      <point x="130" y="179" type="curve"/>
      <point x="108" y="-8" type="line"/>
      <point x="205" y="-47"/>
      <point x="315" y="-67"/>
    </contour>
    <contour>
      <point x="613" y="564" type="curve"/>
      <point x="478" y="627"/>
      <point x="395" y="654"/>
      <point x="404" y="731" type="curve" smooth="yes"/>
      <point x="412" y="792"/>
      <point x="483" y="843"/>
      <point x="515" y="861" type="curve"/>
      <point x="621" y="808"/>
      <point x="704" y="782"/>
      <point x="692" y="691" type="curve" smooth="yes"/>
      <point x="685" y="636"/>
      <point x="647" y="592"/>
    </contour>
  </outline>
</glyph>
<glyph name="copyright" format="1">
  <advance width="1719"/>
  <unicode hex="00A9"/>
  <outline>
    <contour>
      <point x="825" y="287" type="curve" smooth="yes"/>
      <point x="938" y="287"/>
      <point x="1034" y="318"/>
      <point x="1132" y="383" type="curve"/>
      <point x="1091" y="516" type="line"/>
      <point x="1043" y="482"/>
      <point x="965" y="436"/>
      <point x="863" y="436" type="curve" smooth="yes"/>
      <point x="705" y="436"/>
      <point x="612" y="545"/>
      <point x="633" y="723" type="curve" smooth="yes"/>
      <point x="657" y="911"/>
      <point x="774" y="1020"/>
      <point x="932" y="1020" type="curve" smooth="yes"/>
      <point x="1023" y="1020"/>
      <point x="1090" y="984"/>
      <point x="1134" y="940" type="curve"/>
      <point x="1214" y="1061" type="line"/>
      <point x="1154" y="1132"/>
      <point x="1058" y="1169"/>
      <point x="934" y="1169" type="curve" smooth="yes"/>
      <point x="666" y="1169"/>
      <point x="473" y="981"/>
      <point x="442" y="723" type="curve" smooth="yes"/>
      <point x="412" y="482"/>
      <point x="560" y="287"/>
    </contour>
    <contour>
      <point x="780" y="87" type="curve" smooth="yes"/>
      <point x="431" y="87"/>
      <point x="189" y="379"/>
      <point x="233" y="727" type="curve" smooth="yes"/>
      <point x="275" y="1076"/>
      <point x="589" y="1371"/>
      <point x="938" y="1371" type="curve" smooth="yes"/>
      <point x="1285" y="1371"/>
      <point x="1527" y="1076"/>
      <point x="1485" y="727" type="curve" smooth="yes"/>
      <point x="1441" y="379"/>
      <point x="1127" y="87"/>
    </contour>
    <contour>
      <point x="767" y="-22" type="curve" smooth="yes"/>
      <point x="1182" y="-22"/>
      <point x="1562" y="316"/>
      <point x="1613" y="730" type="curve" smooth="yes"/>
      <point x="1664" y="1145"/>
      <point x="1366" y="1483"/>
      <point x="951" y="1483" type="curve" smooth="yes"/>
      <point x="537" y="1483"/>
      <point x="157" y="1145"/>
      <point x="106" y="730" type="curve" smooth="yes"/>
      <point x="55" y="316"/>
      <point x="353" y="-22"/>
    </contour>
  </outline>
</glyph>
<glyph name="guillemotleft" format="1">
  <advance width="1155"/>
  <unicode hex="00AB"/>
  <outline>
    <contour>
      <point x="365" y="162" type="line"/>
      <point x="548" y="162" type="line"/>
      <point x="361" y="541" type="line"/>
      <point x="649" y="920" type="line"/>
      <point x="463" y="920" type="line"/>
      <point x="136" y="541" type="line"/>
    </contour>
    <contour>
      <point x="801" y="162" type="line"/>
      <point x="985" y="162" type="line"/>
      <point x="798" y="541" type="line"/>
      <point x="1086" y="920" type="line"/>
      <point x="900" y="920" type="line"/>
      <point x="573" y="541" type="line"/>
    </contour>
  </outline>
</glyph>
<glyph name="logicalnot" format="1">
  <advance width="1459"/>
  <unicode hex="00AC"/>
  <outline>
    <contour>
      <point x="991" y="226" type="line"/>
      <point x="1200" y="226" type="line"/>
      <point x="1272" y="810" type="line"/>
      <point x="211" y="810" type="line"/>
      <point x="188" y="623" type="line"/>
      <point x="1040" y="623" type="line"/>
    </contour>
  </outline>
</glyph>
<glyph name="registered" format="1">
  <advance width="1719"/>
  <unicode hex="00AE"/>
  <outline>
    <contour>
      <point x="474" y="286" type="line"/>
      <point x="670" y="286" type="line"/>
      <point x="713" y="642" type="line"/>
      <point x="850" y="642" type="line"/>
      <point x="971" y="286" type="line"/>
      <point x="1186" y="286" type="line"/>
      <point x="1036" y="671" type="line"/>
      <point x="1191" y="707"/>
      <point x="1243" y="810"/>
      <point x="1255" y="915" type="curve" smooth="yes"/>
      <point x="1276" y="1084"/>
      <point x="1170" y="1177"/>
      <point x="887" y="1177" type="curve" smooth="yes"/>
      <point x="583" y="1177" type="line"/>
    </contour>
    <contour>
      <point x="730" y="784" type="line"/>
      <point x="760" y="1023" type="line"/>
      <point x="871" y="1023" type="line" smooth="yes"/>
      <point x="1034" y="1023"/>
      <point x="1070" y="1011"/>
      <point x="1057" y="903" type="curve" smooth="yes"/>
      <point x="1044" y="805"/>
      <point x="966" y="784"/>
      <point x="831" y="784" type="curve" smooth="yes"/>
    </contour>
    <contour>
      <point x="780" y="87" type="curve" smooth="yes"/>
      <point x="431" y="87"/>
      <point x="189" y="379"/>
      <point x="233" y="727" type="curve" smooth="yes"/>
      <point x="275" y="1076"/>
      <point x="589" y="1371"/>
      <point x="938" y="1371" type="curve" smooth="yes"/>
      <point x="1285" y="1371"/>
      <point x="1527" y="1076"/>
      <point x="1485" y="727" type="curve" smooth="yes"/>
      <point x="1441" y="379"/>
      <point x="1127" y="87"/>
    </contour>
    <contour>
      <point x="767" y="-22" type="curve" smooth="yes"/>
      <point x="1182" y="-22"/>
      <point x="1562" y="316"/>
      <point x="1613" y="730" type="curve" smooth="yes"/>
      <point x="1664" y="1145"/>
      <point x="1366" y="1483"/>
      <point x="951" y="1483" type="curve" smooth="yes"/>
      <point x="537" y="1483"/>
      <point x="157" y="1145"/>
      <point x="106" y="730" type="curve" smooth="yes"/>
      <point x="55" y="316"/>
      <point x="353" y="-22"/>
    </contour>
  </outline>
</glyph>
<glyph name="macron" format="1">
  <advance width="742"/>
  <unicode hex="00AF"/>
  <outline>
    <contour>
      <point x="342" y="1026" type="move" name="_top"/>
    </contour>
    <contour>
      <point x="383" y="1276" type="move" name="_mid"/>
    </contour>
    <contour>
      <point x="58" y="1202" type="line"/>
      <point x="667" y="1202" type="line"/>
      <point x="684" y="1347" type="line"/>
      <point x="75" y="1347" type="line"/>
    </contour>
  </outline>
</glyph>
<glyph name="degree" format="1">
  <advance width="874"/>
  <unicode hex="00B0"/>
  <outline>
    <contour>
      <point x="415" y="978" type="curve" smooth="yes"/>
      <point x="314" y="978"/>
      <point x="253" y="1056"/>
      <point x="265" y="1156" type="curve" smooth="yes"/>
      <point x="277" y="1254"/>
      <point x="358" y="1332"/>
      <point x="458" y="1332" type="curve" smooth="yes"/>
      <point x="560" y="1332"/>
      <point x="622" y="1254"/>
      <point x="610" y="1156" type="curve" smooth="yes"/>
      <point x="598" y="1056"/>
      <point x="517" y="978"/>
    </contour>
    <contour>
      <point x="399" y="851" type="curve" smooth="yes"/>
      <point x="571" y="851"/>
      <point x="726" y="985"/>
      <point x="747" y="1155" type="curve" smooth="yes"/>
      <point x="768" y="1325"/>
      <point x="647" y="1460"/>
      <point x="474" y="1460" type="curve" smooth="yes"/>
      <point x="303" y="1460"/>
      <point x="148" y="1325"/>
      <point x="127" y="1155" type="curve" smooth="yes"/>
      <point x="106" y="985"/>
      <point x="228" y="851"/>
    </contour>
  </outline>
</glyph>
<glyph name="twosuperior" format="1">
  <advance width="1120"/>
  <unicode hex="00B2"/>
  <outline>
    <contour>
      <point x="237" y="615" type="line"/>
      <point x="811" y="615" type="line"/>
      <point x="831" y="769" type="line"/>
      <point x="498" y="769" type="line"/>
      <point x="642" y="882" type="line" smooth="yes"/>
      <point x="771" y="984"/>
      <point x="879" y="1092"/>
      <point x="894" y="1213" type="curve" smooth="yes"/>
      <point x="914" y="1380"/>
      <point x="796" y="1460"/>
      <point x="640" y="1460" type="curve" smooth="yes"/>
      <point x="530" y="1460"/>
      <point x="412" y="1419"/>
      <point x="321" y="1345" type="curve"/>
      <point x="375" y="1215" type="line"/>
      <point x="448" y="1271"/>
      <point x="537" y="1307"/>
      <point x="610" y="1307" type="curve" smooth="yes"/>
      <point x="680" y="1307"/>
      <point x="724" y="1276"/>
      <point x="716" y="1211" type="curve" smooth="yes"/>
      <point x="710" y="1160"/>
      <point x="668" y="1094"/>
      <point x="551" y="998" type="curve" smooth="yes"/>
      <point x="255" y="755" type="line"/>
    </contour>
  </outline>
</glyph>
<glyph name="threesuperior" format="1">
  <advance width="1025"/>
  <unicode hex="00B3"/>
  <outline>
    <contour>
      <point x="491" y="602" type="curve" smooth="yes"/>
      <point x="652" y="602"/>
      <point x="803" y="688"/>
      <point x="825" y="863" type="curve" smooth="yes"/>
      <point x="835" y="947"/>
      <point x="798" y="1030"/>
      <point x="677" y="1061" type="curve"/>
      <point x="798" y="1095"/>
      <point x="836" y="1172"/>
      <point x="844" y="1239" type="curve" smooth="yes"/>
      <point x="862" y="1387"/>
      <point x="749" y="1459"/>
      <point x="603" y="1459" type="curve" smooth="yes"/>
      <point x="505" y="1459"/>
      <point x="390" y="1426"/>
      <point x="298" y="1368" type="curve"/>
      <point x="343" y="1255" type="line"/>
      <point x="420" y="1301"/>
      <point x="501" y="1326"/>
      <point x="565" y="1326" type="curve" smooth="yes"/>
      <point x="641" y="1326"/>
      <point x="688" y="1293"/>
      <point x="679" y="1221" type="curve" smooth="yes"/>
      <point x="670" y="1153"/>
      <point x="598" y="1116"/>
      <point x="506" y="1116" type="curve" smooth="yes"/>
      <point x="431" y="1116" type="line"/>
      <point x="415" y="984" type="line"/>
      <point x="494" y="984" type="line" smooth="yes"/>
      <point x="605" y="984"/>
      <point x="667" y="941"/>
      <point x="658" y="866" type="curve" smooth="yes"/>
      <point x="648" y="789"/>
      <point x="586" y="738"/>
      <point x="496" y="738" type="curve" smooth="yes"/>
      <point x="437" y="738"/>
      <point x="367" y="762"/>
      <point x="296" y="815" type="curve"/>
      <point x="222" y="697" type="line"/>
      <point x="291" y="635"/>
      <point x="391" y="602"/>
    </contour>
  </outline>
</glyph>
<glyph name="acute" format="1">
  <advance width="607"/>
  <unicode hex="00B4"/>
  <outline>
    <contour>
      <point x="108" y="1026" type="move" name="_top"/>
    </contour>
    <contour>
      <point x="31" y="1170" type="line"/>
      <point x="231" y="1170" type="line"/>
      <point x="613" y="1510" type="line"/>
      <point x="326" y="1510" type="line"/>
    </contour>
  </outline>
</glyph>
<glyph name="paragraph" format="1">
  <advance width="1220"/>
  <unicode hex="00B6"/>
  <outline>
    <contour>
      <point x="346" y="-178" type="line"/>
      <point x="521" y="-178" type="line"/>
      <point x="700" y="1283" type="line"/>
      <point x="874" y="1283" type="line"/>
      <point x="695" y="-178" type="line"/>
      <point x="869" y="-178" type="line"/>
      <point x="1048" y="1283" type="line"/>
      <point x="1141" y="1283" type="line"/>
      <point x="1162" y="1455" type="line"/>
      <point x="684" y="1455" type="line" smooth="yes"/>
      <point x="406" y="1455"/>
      <point x="201" y="1389"/>
      <point x="170" y="1131" type="curve" smooth="yes"/>
      <point x="145" y="929"/>
      <point x="262" y="812"/>
      <point x="466" y="799" type="curve"/>
    </contour>
  </outline>
</glyph>
<glyph name="periodcentered" format="1">
  <advance width="546"/>
  <unicode hex="00B7"/>
  <outline>
    <contour>
      <point x="1" y="650" type="move" name="_mid"/>
    </contour>
    <contour>
      <point x="232" y="533" type="line"/>
      <point x="486" y="533" type="line"/>
      <point x="516" y="775" type="line"/>
      <point x="261" y="775" type="line"/>
    </contour>
  </outline>
</glyph>
<glyph name="cedilla" format="1">
  <advance width="529"/>
  <unicode hex="00B8"/>
  <outline>
    <contour>
      <point x="244" y="0" type="move" name="_bot"/>
    </contour>
    <contour>
      <point x="201" y="-476" type="curve" smooth="yes"/>
      <point x="350" y="-476"/>
      <point x="475" y="-406"/>
      <point x="491" y="-274" type="curve" smooth="yes"/>
      <point x="502" y="-182"/>
      <point x="436" y="-112"/>
      <point x="271" y="-97" type="curve"/>
      <point x="305" y="23" type="line"/>
      <point x="191" y="23" type="line"/>
      <point x="136" y="-164" type="line"/>
      <point x="163" y="-166" type="line" smooth="yes"/>
      <point x="286" y="-174"/>
      <point x="312" y="-215"/>
      <point x="307" y="-257" type="curve" smooth="yes"/>
      <point x="300" y="-311"/>
      <point x="249" y="-333"/>
      <point x="185" y="-333" type="curve" smooth="yes"/>
      <point x="130" y="-333"/>
      <point x="65" y="-317"/>
      <point x="30" y="-302" type="curve"/>
      <point x="2" y="-432" type="line"/>
      <point x="56" y="-459"/>
      <point x="134" y="-476"/>
    </contour>
  </outline>
</glyph>
<glyph name="onesuperior" format="1">
  <advance width="991"/>
  <unicode hex="00B9"/>
  <outline>
    <contour>
      <point x="212" y="617" type="line"/>
      <point x="722" y="617" type="line"/>
      <point x="740" y="760" type="line"/>
      <point x="579" y="760" type="line"/>
      <point x="663" y="1448" type="line"/>
      <point x="525" y="1444" type="line"/>
      <point x="512" y="1437"/>
      <point x="304" y="1371"/>
      <point x="285" y="1365" type="curve"/>
      <point x="266" y="1212" type="line"/>
      <point x="280" y="1217"/>
      <point x="459" y="1264"/>
      <point x="471" y="1270" type="curve"/>
      <point x="409" y="762" type="line"/>
      <point x="230" y="762" type="line"/>
    </contour>
  </outline>
</glyph>
<glyph name="ordmasculine" format="1">
  <advance width="903"/>
  <unicode hex="00BA"/>
  <outline>
    <contour>
      <point x="427" y="875" type="curve" smooth="yes"/>
      <point x="301" y="875"/>
      <point x="238" y="955"/>
      <point x="254" y="1090" type="curve" smooth="yes"/>
      <point x="270" y="1219"/>
      <point x="362" y="1303"/>
      <point x="480" y="1303" type="curve" smooth="yes"/>
      <point x="600" y="1303"/>
      <point x="668" y="1222"/>
      <point x="651" y="1086" type="curve" smooth="yes"/>
      <point x="635" y="958"/>
      <point x="547" y="875"/>
    </contour>
    <contour>
      <point x="411" y="727" type="curve" smooth="yes"/>
      <point x="651" y="727"/>
      <point x="804" y="890"/>
      <point x="828" y="1088" type="curve" smooth="yes"/>
      <point x="853" y="1289"/>
      <point x="739" y="1451"/>
      <point x="498" y="1451" type="curve" smooth="yes"/>
      <point x="258" y="1451"/>
      <point x="100" y="1293"/>
      <point x="75" y="1092" type="curve" smooth="yes"/>
      <point x="50" y="885"/>
      <point x="160" y="727"/>
    </contour>
  </outline>
</glyph>
<glyph name="guillemotright" format="1">
  <advance width="1155"/>
  <unicode hex="00BB"/>
  <outline>
    <contour>
      <point x="91" y="162" type="line"/>
      <point x="277" y="162" type="line"/>
      <point x="604" y="541" type="line"/>
      <point x="376" y="920" type="line"/>
      <point x="192" y="920" type="line"/>
      <point x="379" y="541" type="line"/>
    </contour>
    <contour>
      <point x="528" y="162" type="line"/>
      <point x="713" y="162" type="line"/>
      <point x="1041" y="541" type="line"/>
      <point x="813" y="920" type="line"/>
      <point x="629" y="920" type="line"/>
      <point x="816" y="541" type="line"/>
    </contour>
  </outline>
</glyph>
<glyph name="onequarter" format="1">
  <advance width="2077"/>
  <unicode hex="00BC"/>
  <outline>
    <contour>
      <point x="216" y="623" type="line"/>
      <point x="745" y="623" type="line"/>
      <point x="763" y="764" type="line"/>
      <point x="597" y="764" type="line"/>
      <point x="681" y="1456" type="line"/>
      <point x="539" y="1456" type="line"/>
      <point x="531" y="1451"/>
      <point x="304" y="1378"/>
      <point x="292" y="1375" type="curve"/>
      <point x="274" y="1226" type="line"/>
      <point x="485" y="1283" type="line"/>
      <point x="421" y="766" type="line"/>
      <point x="234" y="766" type="line"/>
    </contour>
    <contour>
      <point x="1558" y="1" type="line"/>
      <point x="1722" y="1" type="line"/>
      <point x="1745" y="193" type="line"/>
      <point x="1861" y="193" type="line"/>
      <point x="1877" y="319" type="line"/>
      <point x="1761" y="319" type="line"/>
      <point x="1821" y="808" type="line"/>
      <point x="1653" y="808" type="line"/>
      <point x="1223" y="300" type="line"/>
      <point x="1210" y="193" type="line"/>
      <point x="1581" y="193" type="line"/>
    </contour>
    <contour>
      <point x="486" y="0" type="line"/>
      <point x="682" y="0" type="line"/>
      <point x="1750" y="1456" type="line"/>
      <point x="1555" y="1456" type="line"/>
    </contour>
    <contour>
      <point x="1388" y="319" type="line"/>
      <point x="1631" y="609" type="line"/>
      <point x="1595" y="319" type="line"/>
    </contour>
  </outline>
</glyph>
<glyph name="onehalf" format="1">
  <advance width="2390"/>
  <unicode hex="00BD"/>
  <outline>
    <contour>
      <point x="1384" y="0" type="line"/>
      <point x="1962" y="0" type="line"/>
      <point x="1982" y="161" type="line"/>
      <point x="1653" y="161" type="line"/>
      <point x="1789" y="262" type="line" smooth="yes"/>
      <point x="1929" y="367"/>
      <point x="2033" y="456"/>
      <point x="2045" y="597" type="curve" smooth="yes"/>
      <point x="2058" y="767"/>
      <point x="1945" y="847"/>
      <point x="1788" y="847" type="curve" smooth="yes"/>
      <point x="1680" y="847"/>
      <point x="1562" y="808"/>
      <point x="1467" y="738" type="curve"/>
      <point x="1518" y="602" type="line"/>
      <point x="1594" y="654"/>
      <point x="1685" y="691"/>
      <point x="1757" y="691" type="curve" smooth="yes"/>
      <point x="1825" y="691"/>
      <point x="1861" y="660"/>
      <point x="1860" y="595" type="curve" smooth="yes"/>
      <point x="1859" y="524"/>
      <point x="1827" y="480"/>
      <point x="1701" y="383" type="curve" smooth="yes"/>
      <point x="1402" y="153" type="line"/>
    </contour>
    <contour>
      <point x="475" y="0" type="line"/>
      <point x="671" y="0" type="line"/>
      <point x="1739" y="1456" type="line"/>
      <point x="1544" y="1456" type="line"/>
    </contour>
    <contour>
      <point x="203" y="623" type="line"/>
      <point x="732" y="623" type="line"/>
      <point x="750" y="764" type="line"/>
      <point x="583" y="764" type="line"/>
      <point x="668" y="1456" type="line"/>
      <point x="526" y="1456" type="line"/>
      <point x="518" y="1451"/>
      <point x="291" y="1378"/>
      <point x="279" y="1375" type="curve"/>
      <point x="260" y="1226" type="line"/>
      <point x="471" y="1283" type="line"/>
      <point x="408" y="766" type="line"/>
      <point x="221" y="766" type="line"/>
    </contour>
  </outline>
</glyph>
<glyph name="threequarters" format="1">
  <advance width="2376"/>
  <unicode hex="00BE"/>
  <outline>
    <contour>
      <point x="496" y="603" type="curve" smooth="yes"/>
      <point x="657" y="603"/>
      <point x="811" y="688"/>
      <point x="833" y="866" type="curve" smooth="yes"/>
      <point x="843" y="949"/>
      <point x="805" y="1030"/>
      <point x="686" y="1064" type="curve"/>
      <point x="802" y="1101"/>
      <point x="843" y="1176"/>
      <point x="851" y="1242" type="curve" smooth="yes"/>
      <point x="869" y="1390"/>
      <point x="755" y="1460"/>
      <point x="609" y="1460" type="curve" smooth="yes"/>
      <point x="509" y="1460"/>
      <point x="396" y="1428"/>
      <point x="300" y="1370" type="curve"/>
      <point x="346" y="1260" type="line"/>
      <point x="426" y="1305"/>
      <point x="504" y="1330"/>
      <point x="568" y="1330" type="curve" smooth="yes"/>
      <point x="643" y="1330"/>
      <point x="691" y="1292"/>
      <point x="682" y="1222" type="curve" smooth="yes"/>
      <point x="674" y="1157"/>
      <point x="603" y="1115"/>
      <point x="514" y="1115" type="curve" smooth="yes"/>
      <point x="436" y="1115" type="line"/>
      <point x="419" y="984" type="line"/>
      <point x="501" y="984" type="line" smooth="yes"/>
      <point x="610" y="984"/>
      <point x="670" y="941"/>
      <point x="661" y="869" type="curve" smooth="yes"/>
      <point x="652" y="793"/>
      <point x="589" y="738"/>
      <point x="500" y="738" type="curve" smooth="yes"/>
      <point x="441" y="738"/>
      <point x="373" y="762"/>
      <point x="300" y="814" type="curve"/>
      <point x="225" y="697" type="line"/>
      <point x="296" y="636"/>
      <point x="395" y="603"/>
    </contour>
    <contour>
      <point x="1570" y="1" type="line"/>
      <point x="1734" y="1" type="line"/>
      <point x="1758" y="193" type="line"/>
      <point x="1875" y="193" type="line"/>
      <point x="1890" y="319" type="line"/>
      <point x="1774" y="319" type="line"/>
      <point x="1834" y="808" type="line"/>
      <point x="1666" y="808" type="line"/>
      <point x="1236" y="300" type="line"/>
      <point x="1223" y="193" type="line"/>
      <point x="1594" y="193" type="line"/>
    </contour>
    <contour>
      <point x="508" y="0" type="line"/>
      <point x="704" y="0" type="line"/>
      <point x="1773" y="1456" type="line"/>
      <point x="1578" y="1456" type="line"/>
    </contour>
    <contour>
      <point x="1401" y="319" type="line"/>
      <point x="1643" y="609" type="line"/>
      <point x="1608" y="319" type="line"/>
    </contour>
  </outline>
</glyph>
<glyph name="AE" format="1">
  <advance width="2157"/>
  <unicode hex="00C6"/>
  <outline>
    <contour>
      <point x="1433" y="1456" type="move" name="top"/>
    </contour>
    <contour>
      <point x="-68" y="0" type="line"/>
      <point x="210" y="0" type="line"/>
      <point x="467" y="373" type="line"/>
      <point x="1061" y="373" type="line"/>
      <point x="1047" y="0" type="line"/>
      <point x="1875" y="0" type="line"/>
      <point x="1899" y="202" type="line"/>
      <point x="1305" y="202" type="line"/>
      <point x="1319" y="648" type="line"/>
      <point x="1915" y="648" type="line"/>
      <point x="1939" y="844" type="line"/>
      <point x="1319" y="844" type="line"/>
      <point x="1334" y="1254" type="line"/>
      <point x="2003" y="1254" type="line"/>
      <point x="2027" y="1456" type="line"/>
      <point x="965" y="1456" type="line"/>
    </contour>
    <contour>
      <point x="580" y="554" type="line"/>
      <point x="1064" y="1254" type="line"/>
      <point x="1103" y="1254" type="line"/>
      <point x="1068" y="554" type="line"/>
    </contour>
  </outline>
</glyph>
<glyph name="Oslash" format="1">
  <advance width="1653"/>
  <unicode hex="00D8"/>
  <outline>
    <contour>
      <point x="340" y="-126" type="line"/>
      <point x="1418" y="1517" type="line"/>
      <point x="1318" y="1569" type="line"/>
      <point x="240" y="-75" type="line"/>
    </contour>
    <component base="O"/>
  </outline>
</glyph>
<glyph name="Thorn" format="1">
  <advance width="1292"/>
  <unicode hex="00DE"/>
  <outline>
    <contour>
      <point x="105" y="0" type="line"/>
      <point x="333" y="0" type="line"/>
      <point x="374" y="336" type="line"/>
      <point x="584" y="336" type="line" smooth="yes"/>
      <point x="902" y="336"/>
      <point x="1182" y="464"/>
      <point x="1221" y="775" type="curve" smooth="yes"/>
      <point x="1266" y="1144"/>
      <point x="1005" y="1217"/>
      <point x="663" y="1217" type="curve" smooth="yes"/>
      <point x="483" y="1217" type="line"/>
      <point x="512" y="1456" type="line"/>
      <point x="283" y="1456" type="line"/>
    </contour>
    <contour>
      <point x="398" y="531" type="line"/>
      <point x="458" y="1023" type="line"/>
      <point x="652" y="1023" type="line" smooth="yes"/>
      <point x="872" y="1023"/>
      <point x="999" y="977"/>
      <point x="974" y="774" type="curve" smooth="yes"/>
      <point x="953" y="604"/>
      <point x="822" y="531"/>
      <point x="632" y="531" type="curve" smooth="yes"/>
    </contour>
  </outline>
</glyph>
<glyph name="germandbls" format="1">
  <advance width="1259"/>
  <unicode hex="00DF"/>
  <outline>
    <contour>
      <point x="727" y="-22" type="curve" smooth="yes"/>
      <point x="929" y="-22"/>
      <point x="1115" y="121"/>
      <point x="1143" y="350" type="curve" smooth="yes"/>
      <point x="1171" y="579"/>
      <point x="1019" y="715"/>
      <point x="832" y="789" type="curve"/>
      <point x="805" y="799"/>
      <point x="770" y="810"/>
      <point x="742" y="817" type="curve"/>
      <point x="771" y="826"/>
      <point x="807" y="839"/>
      <point x="834" y="852" type="curve"/>
      <point x="982" y="921"/>
      <point x="1068" y="1036"/>
      <point x="1084" y="1169" type="curve" smooth="yes"/>
      <point x="1107" y="1358"/>
      <point x="954" y="1488"/>
      <point x="698" y="1488" type="curve" smooth="yes"/>
      <point x="420" y="1488"/>
      <point x="224" y="1327"/>
      <point x="186" y="1010" type="curve" smooth="yes"/>
      <point x="65" y="0" type="line"/>
      <point x="283" y="0" type="line"/>
      <point x="407" y="1011" type="line" smooth="yes"/>
      <point x="430" y="1197"/>
      <point x="530" y="1310"/>
      <point x="676" y="1310" type="curve" smooth="yes"/>
      <point x="782" y="1310"/>
      <point x="855" y="1253"/>
      <point x="844" y="1158" type="curve" smooth="yes"/>
      <point x="830" y="1041"/>
      <point x="729" y="951"/>
      <point x="585" y="893" type="curve"/>
      <point x="564" y="725" type="line"/>
      <point x="805" y="604"/>
      <point x="917" y="500"/>
      <point x="897" y="333" type="curve" smooth="yes"/>
      <point x="883" y="222"/>
      <point x="813" y="168"/>
      <point x="729" y="158" type="curve" smooth="yes"/>
      <point x="608" y="143"/>
      <point x="468" y="212"/>
      <point x="468" y="212" type="curve"/>
      <point x="408" y="37" type="line"/>
      <point x="408" y="37"/>
      <point x="548" y="-22"/>
    </contour>
  </outline>
</glyph>
<glyph name="ae" format="1">
  <advance width="1782"/>
  <unicode hex="00E6"/>
  <outline>
    <contour>
      <point x="958" y="1026" type="move" name="top"/>
    </contour>
    <contour>
      <point x="404" y="-24" type="curve" smooth="yes"/>
      <point x="570" y="-24"/>
      <point x="737" y="51"/>
      <point x="828" y="196" type="curve"/>
      <point x="884" y="49"/>
      <point x="1016" y="-21"/>
      <point x="1193" y="-23" type="curve" smooth="yes"/>
      <point x="1431" y="-25"/>
      <point x="1602" y="106"/>
      <point x="1602" y="106" type="curve"/>
      <point x="1559" y="269" type="line"/>
      <point x="1559" y="269"/>
      <point x="1401" y="155"/>
      <point x="1221" y="159" type="curve" smooth="yes"/>
      <point x="1045" y="162"/>
      <point x="960" y="259"/>
      <point x="971" y="452" type="curve"/>
      <point x="974" y="475" type="line"/>
      <point x="1665" y="475" type="line"/>
      <point x="1665" y="475"/>
      <point x="1672" y="502"/>
      <point x="1675" y="521" type="curve" smooth="yes"/>
      <point x="1711" y="821"/>
      <point x="1604" y="1054"/>
      <point x="1300" y="1052" type="curve" smooth="yes"/>
      <point x="1165" y="1051"/>
      <point x="1018" y="982"/>
      <point x="932" y="860" type="curve"/>
      <point x="888" y="990"/>
      <point x="743" y="1052"/>
      <point x="630" y="1052" type="curve" smooth="yes"/>
      <point x="402" y="1052"/>
      <point x="244" y="967"/>
      <point x="208" y="946" type="curve"/>
      <point x="254" y="794" type="line"/>
      <point x="359" y="841"/>
      <point x="474" y="875"/>
      <point x="566" y="875" type="curve" smooth="yes"/>
      <point x="721" y="875"/>
      <point x="789" y="773"/>
      <point x="773" y="630" type="curve"/>
      <point x="735" y="630" type="line" smooth="yes"/>
      <point x="328" y="630"/>
      <point x="84" y="572"/>
      <point x="50" y="290" type="curve" smooth="yes"/>
      <point x="26" y="89"/>
      <point x="171" y="-24"/>
    </contour>
    <contour>
      <point x="439" y="157" type="curve" smooth="yes"/>
      <point x="340" y="157"/>
      <point x="258" y="196"/>
      <point x="271" y="300" type="curve" smooth="yes"/>
      <point x="288" y="435"/>
      <point x="460" y="475"/>
      <point x="634" y="475" type="curve" smooth="yes"/>
      <point x="754" y="475" type="line"/>
      <point x="733" y="322"/>
      <point x="640" y="157"/>
    </contour>
    <contour>
      <point x="994" y="626" type="line"/>
      <point x="1039" y="765"/>
      <point x="1136" y="882"/>
      <point x="1286" y="882" type="curve" smooth="yes"/>
      <point x="1407" y="882"/>
      <point x="1498" y="796"/>
      <point x="1492" y="643" type="curve"/>
      <point x="1491" y="626" type="line"/>
    </contour>
  </outline>
</glyph>
<glyph name="eth" format="1">
  <advance width="1219"/>
  <unicode hex="00F0"/>
  <outline>
    <contour>
      <point x="494" y="-23" type="curve" smooth="yes"/>
      <point x="818" y="-23"/>
      <point x="1036" y="185"/>
      <point x="1090" y="625" type="curve" smooth="yes"/>
      <point x="1125" y="907"/>
      <point x="1035" y="1111"/>
      <point x="903" y="1252" type="curve"/>
      <point x="1106" y="1360" type="line"/>
      <point x="1054" y="1480" type="line"/>
      <point x="796" y="1344" type="line"/>
      <point x="672" y="1434"/>
      <point x="537" y="1480"/>
      <point x="449" y="1495" type="curve"/>
      <point x="353" y="1348" type="line"/>
      <point x="452" y="1325"/>
      <point x="538" y="1289"/>
      <point x="608" y="1245" type="curve"/>
      <point x="414" y="1142" type="line"/>
      <point x="467" y="1021" type="line"/>
      <point x="727" y="1159" type="line"/>
      <point x="903" y="998"/>
      <point x="900" y="798"/>
      <point x="893" y="745" type="curve"/>
      <point x="831" y="844"/>
      <point x="720" y="906"/>
      <point x="584" y="906" type="curve" smooth="yes"/>
      <point x="306" y="906"/>
      <point x="100" y="728"/>
      <point x="67" y="465" type="curve" smooth="yes"/>
      <point x="35" y="200"/>
      <point x="195" y="-23"/>
    </contour>
    <contour>
      <point x="529" y="164" type="curve" smooth="yes"/>
      <point x="390" y="164"/>
      <point x="275" y="264"/>
      <point x="298" y="453" type="curve" smooth="yes"/>
      <point x="320" y="631"/>
      <point x="450" y="719"/>
      <point x="589" y="719" type="curve" smooth="yes"/>
      <point x="722" y="719"/>
      <point x="848" y="620"/>
      <point x="828" y="459" type="curve" smooth="yes"/>
      <point x="806" y="273"/>
      <point x="672" y="164"/>
    </contour>
  </outline>
</glyph>
<glyph name="divide" format="1">
  <advance width="1417"/>
  <unicode hex="00F7"/>
  <outline>
    <contour>
      <point x="507" y="-7" type="line"/>
      <point x="741" y="-7" type="line"/>
      <point x="772" y="247" type="line"/>
      <point x="539" y="247" type="line"/>
    </contour>
    <contour>
      <point x="155" y="459" type="line"/>
      <point x="1194" y="459" type="line"/>
      <point x="1217" y="646" type="line"/>
      <point x="177" y="646" type="line"/>
    </contour>
    <contour>
      <point x="610" y="850" type="line"/>
      <point x="843" y="850" type="line"/>
      <point x="874" y="1103" type="line"/>
      <point x="641" y="1103" type="line"/>
    </contour>
  </outline>
</glyph>
<glyph name="oslash" format="1">
  <advance width="1272"/>
  <unicode hex="00F8"/>
  <outline>
    <contour>
      <point x="282" y="-209" type="line"/>
      <point x="1086" y="1167" type="line"/>
      <point x="993" y="1211" type="line"/>
      <point x="189" y="-166" type="line"/>
    </contour>
    <component base="o"/>
  </outline>
</glyph>
<glyph name="thorn" format="1">
  <advance width="1231"/>
  <unicode hex="00FE"/>
  <outline>
    <contour>
      <point x="31" y="-405" type="line"/>
      <point x="245" y="-405" type="line"/>
      <point x="306" y="96" type="line"/>
      <point x="364" y="20"/>
      <point x="475" y="-23"/>
      <point x="588" y="-23" type="curve" smooth="yes"/>
      <point x="909" y="-23"/>
      <point x="1096" y="240"/>
      <point x="1131" y="525" type="curve" smooth="yes"/>
      <point x="1166" y="808"/>
      <point x="1039" y="1051"/>
      <point x="721" y="1051" type="curve" smooth="yes"/>
      <point x="613" y="1051"/>
      <point x="477" y="1000"/>
      <point x="408" y="916" type="curve"/>
      <point x="476" y="1462" type="line"/>
      <point x="260" y="1462" type="line"/>
    </contour>
    <contour>
      <point x="580" y="157" type="curve" smooth="yes"/>
      <point x="404" y="157"/>
      <point x="331" y="300"/>
      <point x="354" y="494" type="curve" smooth="yes"/>
      <point x="379" y="690"/>
      <point x="470" y="869"/>
      <point x="675" y="869" type="curve" smooth="yes"/>
      <point x="872" y="869"/>
      <point x="918" y="701"/>
      <point x="896" y="521" type="curve" smooth="yes"/>
      <point x="872" y="330"/>
      <point x="770" y="157"/>
    </contour>
  </outline>
</glyph>
<glyph name="kgreenlandic" format="1">
  <advance width="1082"/>
  <unicode hex="0138"/>
  <outline>
    <contour>
      <point x="92" y="0" type="line"/>
      <point x="315" y="0" type="line"/>
      <point x="366" y="415" type="line"/>
      <point x="745" y="0" type="line"/>
      <point x="1038" y="0" type="line"/>
      <point x="849" y="193"/>
      <point x="726" y="334"/>
      <point x="553" y="513" type="curve"/>
      <point x="1128" y="1026" type="line"/>
      <point x="828" y="1026" type="line"/>
      <point x="389" y="604" type="line"/>
      <point x="441" y="1026" type="line"/>
      <point x="218" y="1026" type="line"/>
    </contour>
  </outline>
</glyph>
<glyph name="Lslash" format="1">
  <advance width="1152"/>
  <unicode hex="0141"/>
  <outline>
    <contour>
      <point x="8" y="441" type="line"/>
      <point x="685" y="877" type="line"/>
      <point x="709" y="1076" type="line"/>
      <point x="32" y="640" type="line"/>
    </contour>
    <component base="L"/>
  </outline>
</glyph>
<glyph name="Eng" format="1">
  <advance width="1602"/>
  <unicode hex="014A"/>
  <outline>
    <contour>
      <point x="1527" y="1456" type="line"/>
      <point x="1307" y="1456" type="line"/>
      <point x="1179" y="406" type="line"/>
      <point x="1086" y="573" type="line"/>
      <point x="555" y="1456" type="line"/>
      <point x="308" y="1456" type="line"/>
      <point x="130" y="0" type="line"/>
      <point x="345" y="0" type="line"/>
      <point x="488" y="1158" type="line"/>
      <point x="580" y="989" type="line"/>
      <point x="1138" y="82" type="line"/>
      <point x="1125" y="-25" type="line" smooth="yes"/>
      <point x="1101" y="-226"/>
      <point x="970" y="-277"/>
      <point x="802" y="-277" type="curve" smooth="yes"/>
      <point x="713" y="-277"/>
      <point x="614" y="-258"/>
      <point x="512" y="-229" type="curve"/>
      <point x="461" y="-408" type="line"/>
      <point x="579" y="-438"/>
      <point x="687" y="-454"/>
      <point x="785" y="-454" type="curve" smooth="yes"/>
      <point x="1111" y="-454"/>
      <point x="1312" y="-301"/>
      <point x="1354" y="41" type="curve" smooth="yes"/>
    </contour>
  </outline>
</glyph>
<glyph name="eng" format="1">
  <advance width="1207"/>
  <unicode hex="014B"/>
  <outline>
    <contour>
      <point x="472" y="-406" type="curve" smooth="yes"/>
      <point x="803" y="-406"/>
      <point x="1003" y="-227"/>
      <point x="1045" y="118" type="curve" smooth="yes"/>
      <point x="1101" y="575" type="line" smooth="yes"/>
      <point x="1143" y="914"/>
      <point x="1036" y="1052"/>
      <point x="789" y="1052" type="curve" smooth="yes"/>
      <point x="674" y="1052"/>
      <point x="530" y="995"/>
      <point x="452" y="880" type="curve"/>
      <point x="470" y="1026" type="line"/>
      <point x="234" y="1026" type="line" smooth="yes"/>
      <point x="234" y="1026"/>
      <point x="232" y="886"/>
      <point x="207" y="677" type="curve" smooth="yes"/>
      <point x="124" y="0" type="line"/>
      <point x="348" y="0" type="line"/>
      <point x="425" y="626" type="line" smooth="yes"/>
      <point x="442" y="760"/>
      <point x="599" y="870"/>
      <point x="721" y="870" type="curve" smooth="yes"/>
      <point x="876" y="870"/>
      <point x="902" y="778"/>
      <point x="878" y="582" type="curve" smooth="yes"/>
      <point x="815" y="70" type="line" smooth="yes"/>
      <point x="788" y="-150"/>
      <point x="663" y="-233"/>
      <point x="479" y="-233" type="curve" smooth="yes"/>
      <point x="397" y="-233"/>
      <point x="304" y="-217"/>
      <point x="208" y="-190" type="curve"/>
      <point x="159" y="-362" type="line"/>
      <point x="273" y="-391"/>
      <point x="377" y="-406"/>
    </contour>
  </outline>
</glyph>
<glyph name="OE" format="1">
  <advance width="2053"/>
  <unicode hex="0152"/>
  <outline>
    <contour>
      <point x="722" y="-24" type="curve" smooth="yes"/>
      <point x="890" y="-19"/>
      <point x="1003" y="58"/>
      <point x="1020" y="75" type="curve"/>
      <point x="1010" y="0" type="line"/>
      <point x="1866" y="0" type="line"/>
      <point x="1891" y="197" type="line"/>
      <point x="1267" y="197" type="line"/>
      <point x="1322" y="646" type="line"/>
      <point x="1879" y="646" type="line"/>
      <point x="1903" y="844" type="line"/>
      <point x="1345" y="844" type="line"/>
      <point x="1396" y="1259" type="line"/>
      <point x="1992" y="1259" type="line"/>
      <point x="2015" y="1456" type="line"/>
      <point x="1189" y="1456" type="line"/>
      <point x="1182" y="1394" type="line"/>
      <point x="1173" y="1403"/>
      <point x="1092" y="1488"/>
      <point x="869" y="1482" type="curve" smooth="yes"/>
      <point x="490" y="1474"/>
      <point x="163" y="1189"/>
      <point x="106" y="731" type="curve" smooth="yes"/>
      <point x="44" y="220"/>
      <point x="318" y="-36"/>
    </contour>
    <contour>
      <point x="749" y="160" type="curve" smooth="yes"/>
      <point x="461" y="159"/>
      <point x="310" y="370"/>
      <point x="354" y="725" type="curve" smooth="yes"/>
      <point x="398" y="1091"/>
      <point x="615" y="1270"/>
      <point x="858" y="1285" type="curve" smooth="yes"/>
      <point x="1026" y="1297"/>
      <point x="1113" y="1244"/>
      <point x="1158" y="1199" type="curve"/>
      <point x="1042" y="255" type="line"/>
      <point x="1027" y="241"/>
      <point x="942" y="161"/>
    </contour>
  </outline>
</glyph>
<glyph name="oe" format="1">
  <advance width="1993"/>
  <unicode hex="0153"/>
  <outline>
    <contour>
      <point x="566" y="-22" type="curve" smooth="yes"/>
      <point x="730" y="-22"/>
      <point x="899" y="58"/>
      <point x="981" y="181" type="curve"/>
      <point x="1038" y="57"/>
      <point x="1200" y="-22"/>
      <point x="1365" y="-22" type="curve" smooth="yes"/>
      <point x="1629" y="-22"/>
      <point x="1788" y="103"/>
      <point x="1788" y="103" type="curve"/>
      <point x="1744" y="266" type="line"/>
      <point x="1744" y="266"/>
      <point x="1600" y="159"/>
      <point x="1412" y="159" type="curve" smooth="yes"/>
      <point x="1223" y="159"/>
      <point x="1117" y="255"/>
      <point x="1124" y="422" type="curve"/>
      <point x="1124" y="423"/>
      <point x="1126" y="448"/>
      <point x="1125" y="449" type="curve"/>
      <point x="1852" y="449" type="line"/>
      <point x="1859" y="509" type="line" smooth="yes"/>
      <point x="1899" y="834"/>
      <point x="1760" y="1055"/>
      <point x="1466" y="1055" type="curve" smooth="yes"/>
      <point x="1278" y="1055"/>
      <point x="1157" y="980"/>
      <point x="1064" y="853" type="curve"/>
      <point x="1003" y="969"/>
      <point x="886" y="1052"/>
      <point x="694" y="1052" type="curve" smooth="yes"/>
      <point x="352" y="1052"/>
      <point x="135" y="813"/>
      <point x="98" y="511" type="curve" smooth="yes"/>
      <point x="61" y="205"/>
      <point x="229" y="-22"/>
    </contour>
    <contour>
      <point x="592" y="159" type="curve" smooth="yes"/>
      <point x="382" y="159"/>
      <point x="308" y="317"/>
      <point x="331" y="508" type="curve" smooth="yes"/>
      <point x="357" y="711"/>
      <point x="479" y="871"/>
      <point x="672" y="871" type="curve" smooth="yes"/>
      <point x="870" y="871"/>
      <point x="932" y="715"/>
      <point x="907" y="511" type="curve" smooth="yes"/>
      <point x="884" y="323"/>
      <point x="780" y="159"/>
    </contour>
    <contour>
      <point x="1150" y="631" type="line"/>
      <point x="1185" y="773"/>
      <point x="1301" y="873"/>
      <point x="1443" y="873" type="curve" smooth="yes"/>
      <point x="1577" y="873"/>
      <point x="1672" y="783"/>
      <point x="1662" y="644" type="curve"/>
      <point x="1661" y="631" type="line"/>
    </contour>
  </outline>
</glyph>
<glyph name="dotlessj" format="1">
  <advance width="544"/>
  <unicode hex="0237"/>
  <outline>
    <contour>
      <point x="381" y="1026" type="move" name="top"/>
    </contour>
    <contour>
      <point x="-32" y="-394" type="curve" smooth="yes"/>
      <point x="263" y="-394"/>
      <point x="341" y="-175"/>
      <point x="369" y="55" type="curve" smooth="yes"/>
      <point x="488" y="1026" type="line"/>
      <point x="271" y="1026" type="line"/>
      <point x="149" y="32" type="line" smooth="yes"/>
      <point x="125" y="-161"/>
      <point x="63" y="-224"/>
      <point x="-40" y="-224" type="curve" smooth="yes"/>
      <point x="-88" y="-224"/>
      <point x="-136" y="-212"/>
      <point x="-154" y="-208" type="curve"/>
      <point x="-186" y="-375" type="line"/>
      <point x="-165" y="-379"/>
      <point x="-107" y="-394"/>
    </contour>
  </outline>
</glyph>
<glyph name="circumflex" format="1">
  <advance width="699"/>
  <unicode hex="02C6"/>
  <outline>
    <contour>
      <point x="312" y="1026" type="move" name="_top"/>
    </contour>
    <contour>
      <point x="-31" y="1159" type="line"/>
      <point x="165" y="1159" type="line"/>
      <point x="349" y="1355" type="line"/>
      <point x="482" y="1159" type="line"/>
      <point x="686" y="1159" type="line"/>
      <point x="478" y="1527" type="line"/>
      <point x="263" y="1527" type="line"/>
    </contour>
  </outline>
</glyph>
<glyph name="caron" format="1">
  <advance width="699"/>
  <unicode hex="02C7"/>
  <outline>
    <contour>
      <point x="321" y="1026" type="move" name="_top"/>
    </contour>
    <contour>
      <point x="235" y="1159" type="line"/>
      <point x="421" y="1159" type="line"/>
      <point x="732" y="1528" type="line"/>
      <point x="510" y="1528" type="line"/>
      <point x="344" y="1333" type="line"/>
      <point x="228" y="1528" type="line"/>
      <point x="14" y="1528" type="line"/>
    </contour>
  </outline>
</glyph>
<glyph name="breve" format="1">
  <advance width="668"/>
  <unicode hex="02D8"/>
  <outline>
    <contour>
      <point x="304" y="1026" type="move" name="_top"/>
    </contour>
    <contour>
      <point x="318" y="1174" type="curve" smooth="yes"/>
      <point x="500" y="1174"/>
      <point x="617" y="1257"/>
      <point x="655" y="1456" type="curve"/>
      <point x="499" y="1456" type="line"/>
      <point x="476" y="1353"/>
      <point x="413" y="1332"/>
      <point x="338" y="1332" type="curve" smooth="yes"/>
      <point x="263" y="1332"/>
      <point x="201" y="1353"/>
      <point x="206" y="1456" type="curve"/>
      <point x="48" y="1456" type="line"/>
      <point x="37" y="1257"/>
      <point x="136" y="1174"/>
    </contour>
  </outline>
</glyph>
<glyph name="ring" format="1">
  <advance width="672"/>
  <unicode hex="02DA"/>
  <outline>
    <contour>
      <point x="298" y="1026" type="move" name="_top"/>
    </contour>
    <contour>
      <point x="350" y="1500" type="move" name="top"/>
    </contour>
    <contour>
      <point x="318" y="1233" type="curve" smooth="yes"/>
      <point x="260" y="1233"/>
      <point x="218" y="1282"/>
      <point x="225" y="1342" type="curve" smooth="yes"/>
      <point x="232" y="1402"/>
      <point x="286" y="1450"/>
      <point x="344" y="1450" type="curve" smooth="yes"/>
      <point x="403" y="1450"/>
      <point x="445" y="1402"/>
      <point x="438" y="1342" type="curve" smooth="yes"/>
      <point x="431" y="1282"/>
      <point x="377" y="1233"/>
    </contour>
    <contour>
      <point x="306" y="1135" type="curve" smooth="yes"/>
      <point x="423" y="1135"/>
      <point x="530" y="1223"/>
      <point x="545" y="1342" type="curve" smooth="yes"/>
      <point x="559" y="1462"/>
      <point x="474" y="1549"/>
      <point x="357" y="1549" type="curve" smooth="yes"/>
      <point x="239" y="1549"/>
      <point x="133" y="1462"/>
      <point x="118" y="1342" type="curve" smooth="yes"/>
      <point x="104" y="1223"/>
      <point x="188" y="1135"/>
    </contour>
  </outline>
</glyph>
<glyph name="ogonek" format="1">
  <advance width="508"/>
  <unicode hex="02DB"/>
  <outline>
    <contour>
      <point x="331" y="0" type="move" name="_ogonek"/>
    </contour>
    <contour>
      <point x="228" y="-392" type="curve" smooth="yes"/>
      <point x="297" y="-392"/>
      <point x="378" y="-378"/>
      <point x="455" y="-355" type="curve"/>
      <point x="471" y="-225" type="line"/>
      <point x="437" y="-234"/>
      <point x="363" y="-256"/>
      <point x="308" y="-256" type="curve" smooth="yes"/>
      <point x="253" y="-256"/>
      <point x="221" y="-237"/>
      <point x="227" y="-193" type="curve" smooth="yes"/>
      <point x="234" y="-132"/>
      <point x="313" y="-39"/>
      <point x="412" y="17" type="curve"/>
      <point x="291" y="19" type="line"/>
      <point x="200" y="-24"/>
      <point x="39" y="-108"/>
      <point x="23" y="-243" type="curve" smooth="yes"/>
      <point x="10" y="-347"/>
      <point x="102" y="-392"/>
    </contour>
  </outline>
</glyph>
<glyph name="tilde" format="1">
  <advance width="711"/>
  <unicode hex="02DC"/>
  <outline>
    <contour>
      <point x="357" y="1026" type="move" name="_top"/>
    </contour>
    <contour>
      <point x="484" y="1166" type="curve" smooth="yes"/>
      <point x="612" y="1165"/>
      <point x="705" y="1260"/>
      <point x="727" y="1442" type="curve"/>
      <point x="580" y="1442" type="line"/>
      <point x="567" y="1352"/>
      <point x="537" y="1335"/>
      <point x="496" y="1339" type="curve" smooth="yes"/>
      <point x="434" y="1343"/>
      <point x="335" y="1442"/>
      <point x="223" y="1442" type="curve" smooth="yes"/>
      <point x="100" y="1442"/>
      <point x="5" y="1332"/>
      <point x="-15" y="1171" type="curve"/>
      <point x="129" y="1171" type="line"/>
      <point x="145" y="1243"/>
      <point x="179" y="1271"/>
      <point x="212" y="1271" type="curve" smooth="yes"/>
      <point x="277" y="1271"/>
      <point x="391" y="1167"/>
    </contour>
  </outline>
</glyph>
<glyph name="uni0307" format="1">
  <advance width="524"/>
  <unicode hex="0307"/>
  <outline>
    <contour>
      <point x="227" y="1026" type="move" name="_top"/>
    </contour>
    <contour>
      <point x="142" y="1221" type="line"/>
      <point x="358" y="1221" type="line"/>
      <point x="382" y="1426" type="line"/>
      <point x="166" y="1426" type="line"/>
    </contour>
  </outline>
</glyph>
<glyph name="uni030F" format="1">
  <advance width="969"/>
  <unicode hex="030F"/>
  <outline>
    <contour>
      <point x="579" y="1026" type="move" name="_top"/>
    </contour>
    <contour>
      <point x="342" y="1170" type="line"/>
      <point x="504" y="1170" type="line"/>
      <point x="304" y="1550" type="line"/>
      <point x="55" y="1550" type="line"/>
    </contour>
    <contour>
      <point x="680" y="1170" type="line"/>
      <point x="837" y="1170" type="line"/>
      <point x="673" y="1550" type="line"/>
      <point x="434" y="1550" type="line"/>
    </contour>
  </outline>
</glyph>
<glyph name="uni0311" format="1">
  <advance width="629"/>
  <unicode hex="0311"/>
  <outline>
    <contour>
      <point x="281" y="1026" type="move" name="_top"/>
    </contour>
    <contour>
      <point x="2" y="1173" type="curve"/>
      <point x="145" y="1173" type="line"/>
      <point x="166" y="1263"/>
      <point x="247" y="1295"/>
      <point x="314" y="1295" type="curve" smooth="yes"/>
      <point x="381" y="1295"/>
      <point x="452" y="1264"/>
      <point x="453" y="1173" type="curve"/>
      <point x="593" y="1173" type="line"/>
      <point x="602" y="1354"/>
      <point x="494" y="1440"/>
      <point x="331" y="1440" type="curve" smooth="yes"/>
      <point x="167" y="1440"/>
      <point x="38" y="1353"/>
    </contour>
  </outline>
</glyph>
<glyph name="uni0312" format="1">
  <advance width="600"/>
  <unicode hex="0312"/>
  <outline>
    <contour>
      <point x="239" y="1026" type="move" name="_top"/>
    </contour>
    <contour>
      <point x="575" y="1704" type="line"/>
      <point x="387" y="1704" type="line"/>
      <point x="151" y="1203" type="line"/>
      <point x="403" y="1203" type="line"/>
    </contour>
  </outline>
</glyph>
<glyph name="Delta" format="1">
  <advance width="1390"/>
  <unicode hex="0394"/>
  <outline>
    <contour>
      <point x="-28" y="0" type="line"/>
      <point x="1239" y="0" type="line"/>
      <point x="1257" y="154" type="line"/>
      <point x="899" y="1456" type="line"/>
      <point x="678" y="1456" type="line"/>
      <point x="-11" y="147" type="line"/>
    </contour>
    <contour>
      <point x="233" y="183" type="line"/>
      <point x="739" y="1195" type="line"/>
      <point x="997" y="183" type="line"/>
    </contour>
  </outline>
</glyph>
<glyph name="Omega" format="1">
  <advance width="1603"/>
  <unicode hex="03A9"/>
  <outline>
    <contour>
      <point x="-9" y="0" type="line"/>
      <point x="579" y="0" type="line"/>
      <point x="598" y="156" type="line"/>
      <point x="420" y="281"/>
      <point x="309" y="520"/>
      <point x="341" y="782" type="curve" smooth="yes"/>
      <point x="371" y="1020"/>
      <point x="533" y="1290"/>
      <point x="862" y="1290" type="curve" smooth="yes"/>
      <point x="1202" y="1290"/>
      <point x="1280" y="1008"/>
      <point x="1252" y="781" type="curve" smooth="yes"/>
      <point x="1220" y="518"/>
      <point x="1047" y="283"/>
      <point x="839" y="156" type="curve"/>
      <point x="820" y="0" type="line"/>
      <point x="1400" y="0" type="line"/>
      <point x="1441" y="181" type="line"/>
      <point x="1134" y="180" type="line"/>
      <point x="1330" y="324"/>
      <point x="1463" y="546"/>
      <point x="1496" y="808" type="curve" smooth="yes"/>
      <point x="1545" y="1207"/>
      <point x="1295" y="1481"/>
      <point x="887" y="1481" type="curve" smooth="yes"/>
      <point x="485" y="1481"/>
      <point x="155" y="1219"/>
      <point x="105" y="811" type="curve" smooth="yes"/>
      <point x="73" y="552"/>
      <point x="144" y="327"/>
      <point x="308" y="180" type="curve"/>
      <point x="-9" y="181" type="line"/>
    </contour>
  </outline>
</glyph>
<glyph name="mu" format="1">
  <advance width="1203"/>
  <unicode hex="03BC"/>
  <outline>
    <contour>
      <point x="287" y="-241" type="line"/>
      <point x="320" y="21" type="line"/>
      <point x="358" y="-7"/>
      <point x="420" y="-23"/>
      <point x="487" y="-23" type="curve" smooth="yes"/>
      <point x="618" y="-23"/>
      <point x="736" y="49"/>
      <point x="794" y="155" type="curve"/>
      <point x="779" y="0" type="line"/>
      <point x="1010" y="0" type="line"/>
      <point x="1012" y="70"/>
      <point x="1019" y="176"/>
      <point x="1030" y="262" type="curve" smooth="yes"/>
      <point x="1124" y="1026" type="line"/>
      <point x="899" y="1026" type="line"/>
      <point x="824" y="419" type="line" smooth="yes"/>
      <point x="802" y="233"/>
      <point x="702" y="158"/>
      <point x="544" y="158" type="curve" smooth="yes"/>
      <point x="399" y="158"/>
      <point x="345" y="249"/>
      <point x="366" y="422" type="curve" smooth="yes"/>
      <point x="438" y="1026" type="line"/>
      <point x="217" y="1026" type="line"/>
      <point x="61" y="-241" type="line"/>
    </contour>
  </outline>
</glyph>
<glyph name="pi" format="1">
  <advance width="1288"/>
  <unicode hex="03C0"/>
  <outline>
    <contour>
      <point x="110" y="0" type="curve"/>
      <point x="334" y="0" type="line"/>
      <point x="448" y="160"/>
      <point x="558" y="860"/>
      <point x="558" y="860" type="curve"/>
      <point x="846" y="860" type="line"/>
      <point x="774" y="270" type="line" smooth="yes"/>
      <point x="749" y="65"/>
      <point x="834" y="-16"/>
      <point x="989" y="-16" type="curve" smooth="yes"/>
      <point x="1028" y="-16"/>
      <point x="1088" y="-11"/>
      <point x="1136" y="-2" type="curve"/>
      <point x="1157" y="175" type="line"/>
      <point x="1119" y="166"/>
      <point x="1087" y="162"/>
      <point x="1066" y="162" type="curve" smooth="yes"/>
      <point x="970" y="162"/>
      <point x="980" y="247"/>
      <point x="987" y="307" type="curve" smooth="yes"/>
      <point x="1055" y="860" type="line"/>
      <point x="1258" y="860" type="line"/>
      <point x="1278" y="1026" type="line"/>
      <point x="395" y="1026" type="line" smooth="yes"/>
      <point x="251" y="1026"/>
      <point x="150" y="998"/>
      <point x="104" y="963" type="curve"/>
      <point x="101" y="799" type="line"/>
      <point x="146" y="830"/>
      <point x="233" y="857"/>
      <point x="354" y="860" type="curve"/>
      <point x="306" y="561"/>
      <point x="232" y="171"/>
    </contour>
  </outline>
</glyph>
<glyph name="emdash" format="1">
  <advance width="2171"/>
  <unicode hex="2014"/>
  <outline>
    <contour>
      <point x="19" y="463" type="line"/>
      <point x="2129" y="463" type="line"/>
      <point x="2152" y="648" type="line"/>
      <point x="42" y="648" type="line"/>
    </contour>
  </outline>
</glyph>
<glyph name="quoteleft" format="1">
  <advance width="552"/>
  <unicode hex="2018"/>
  <outline>
    <contour>
      <point x="256" y="871" type="line"/>
      <point x="400" y="871" type="line"/>
      <point x="430" y="1456" type="line"/>
      <point x="166" y="1456" type="line"/>
    </contour>
  </outline>
</glyph>
<glyph name="quoteright" format="1">
  <advance width="593"/>
  <unicode hex="2019"/>
  <outline>
    <contour>
      <point x="80" y="872" type="line"/>
      <point x="244" y="872" type="line"/>
      <point x="498" y="1456" type="line"/>
      <point x="238" y="1456" type="line"/>
    </contour>
  </outline>
</glyph>
<glyph name="quotesinglbase" format="1">
  <advance width="654"/>
  <unicode hex="201A"/>
  <outline>
    <contour>
      <point x="115" y="-321" type="line"/>
      <point x="308" y="-321" type="line"/>
      <point x="540" y="244" type="line"/>
      <point x="296" y="244" type="line"/>
    </contour>
  </outline>
</glyph>
<glyph name="quotedblbase" format="1">
  <advance width="1024"/>
  <unicode hex="201E"/>
  <outline>
    <contour>
      <point x="85" y="-226" type="line"/>
      <point x="281" y="-226" type="line"/>
      <point x="498" y="244" type="line"/>
      <point x="251" y="244" type="line"/>
    </contour>
    <contour>
      <point x="473" y="-226" type="line"/>
      <point x="665" y="-226" type="line"/>
      <point x="886" y="244" type="line"/>
      <point x="640" y="244" type="line"/>
    </contour>
  </outline>
</glyph>
<glyph name="dagger" format="1">
  <advance width="1022"/>
  <unicode hex="2020"/>
  <outline>
    <contour>
      <point x="332" y="64" type="line"/>
      <point x="511" y="64" type="line"/>
      <point x="611" y="878" type="line"/>
      <point x="947" y="878" type="line"/>
      <point x="968" y="1049" type="line"/>
      <point x="635" y="1049" type="line"/>
      <point x="682" y="1436" type="line"/>
      <point x="500" y="1436" type="line"/>
      <point x="453" y="1049" type="line"/>
      <point x="127" y="1049" type="line"/>
      <point x="106" y="878" type="line"/>
      <point x="432" y="878" type="line"/>
    </contour>
  </outline>
</glyph>
<glyph name="daggerdbl" format="1">
  <advance width="1140"/>
  <unicode hex="2021"/>
  <outline>
    <contour>
      <point x="184" y="1051" type="line"/>
      <point x="165" y="899" type="line"/>
      <point x="501" y="899" type="line"/>
      <point x="455" y="524" type="line"/>
      <point x="114" y="524" type="line"/>
      <point x="96" y="378" type="line"/>
      <point x="437" y="378" type="line"/>
      <point x="385" y="-48" type="line"/>
      <point x="581" y="-48" type="line"/>
      <point x="633" y="378" type="line"/>
      <point x="955" y="378" type="line"/>
      <point x="973" y="524" type="line"/>
      <point x="651" y="524" type="line"/>
      <point x="697" y="899" type="line"/>
      <point x="1028" y="899" type="line"/>
      <point x="1047" y="1051" type="line"/>
      <point x="716" y="1051" type="line"/>
      <point x="765" y="1456" type="line"/>
      <point x="569" y="1456" type="line"/>
      <point x="520" y="1051" type="line"/>
    </contour>
  </outline>
</glyph>
<glyph name="ellipsis" format="1">
  <advance width="1620"/>
  <unicode hex="2026"/>
  <outline>
    <contour>
      <point x="112" y="-11" type="line"/>
      <point x="389" y="-11" type="line"/>
      <point x="420" y="242" type="line"/>
      <point x="143" y="242" type="line"/>
    </contour>
    <contour>
      <point x="639" y="-11" type="line"/>
      <point x="916" y="-11" type="line"/>
      <point x="946" y="242" type="line"/>
      <point x="670" y="242" type="line"/>
    </contour>
    <contour>
      <point x="1165" y="-11" type="line"/>
      <point x="1440" y="-11" type="line"/>
      <point x="1472" y="242" type="line"/>
      <point x="1196" y="242" type="line"/>
    </contour>
  </outline>
</glyph>
<glyph name="perthousand" format="1">
  <advance width="2683"/>
  <unicode hex="2030"/>
  <outline>
    <contour>
      <point x="2156" y="122" type="curve" smooth="yes"/>
      <point x="2041" y="122"/>
      <point x="1999" y="199"/>
      <point x="2018" y="354" type="curve" smooth="yes"/>
      <point x="2036" y="500"/>
      <point x="2093" y="589"/>
      <point x="2214" y="589" type="curve" smooth="yes"/>
      <point x="2335" y="589"/>
      <point x="2370" y="502"/>
      <point x="2352" y="355" type="curve" smooth="yes"/>
      <point x="2333" y="201"/>
      <point x="2271" y="122"/>
    </contour>
    <contour>
      <point x="2138" y="-22" type="curve" smooth="yes"/>
      <point x="2361" y="-22"/>
      <point x="2517" y="141"/>
      <point x="2543" y="355" type="curve" smooth="yes"/>
      <point x="2568" y="564"/>
      <point x="2456" y="732"/>
      <point x="2231" y="732" type="curve" smooth="yes"/>
      <point x="2007" y="732"/>
      <point x="1852" y="563"/>
      <point x="1827" y="355" type="curve" smooth="yes"/>
      <point x="1800" y="140"/>
      <point x="1914" y="-22"/>
    </contour>
    <component base="percent"/>
  </outline>
</glyph>
<glyph name="guilsinglleft" format="1">
  <advance width="709"/>
  <unicode hex="2039"/>
  <outline>
    <contour>
      <point x="366" y="162" type="line"/>
      <point x="550" y="162" type="line"/>
      <point x="363" y="540" type="line"/>
      <point x="651" y="920" type="line"/>
      <point x="465" y="920" type="line"/>
      <point x="138" y="541" type="line"/>
    </contour>
  </outline>
</glyph>
<glyph name="Euro" format="1">
  <advance width="1492"/>
  <unicode hex="20AC"/>
  <outline>
    <contour>
      <point x="63" y="512" type="line"/>
      <point x="938" y="512" type="line"/>
      <point x="958" y="624" type="line"/>
      <point x="367" y="624" type="line"/>
      <point x="391" y="832" type="line"/>
      <point x="1013" y="832" type="line"/>
      <point x="1034" y="950" type="line"/>
      <point x="120" y="950" type="line"/>
      <point x="101" y="832" type="line"/>
      <point x="356" y="832" type="line"/>
      <point x="333" y="624" type="line"/>
      <point x="81" y="624" type="line"/>
    </contour>
    <component base="C" xOffset="145"/>
  </outline>
</glyph>
<glyph name="trademark" format="1">
  <advance width="1869"/>
  <unicode hex="2122"/>
  <outline>
    <contour>
      <point x="771" y="658" type="line"/>
      <point x="932" y="658" type="line"/>
      <point x="992" y="1152" type="line"/>
      <point x="1152" y="658" type="line"/>
      <point x="1260" y="658" type="line"/>
      <point x="1540" y="1161" type="line"/>
      <point x="1478" y="658" type="line"/>
      <point x="1644" y="658" type="line"/>
      <point x="1740" y="1436" type="line"/>
      <point x="1543" y="1436" type="line"/>
      <point x="1238" y="904" type="line"/>
      <point x="1065" y="1436" type="line"/>
      <point x="867" y="1436" type="line"/>
    </contour>
    <contour>
      <point x="255" y="658" type="line"/>
      <point x="429" y="658" type="line"/>
      <point x="506" y="1286" type="line"/>
      <point x="737" y="1286" type="line"/>
      <point x="755" y="1436" type="line"/>
      <point x="121" y="1436" type="line"/>
      <point x="102" y="1286" type="line"/>
      <point x="332" y="1286" type="line"/>
    </contour>
  </outline>
</glyph>
<glyph name="estimated" format="1">
  <advance width="1203"/>
  <unicode hex="212E"/>
  <outline>
    <contour>
      <point x="560" y="114" type="curve" smooth="yes"/>
      <point x="702" y="114"/>
      <point x="859" y="158"/>
      <point x="1006" y="247" type="curve"/>
      <point x="985" y="299" type="line"/>
      <point x="850" y="218"/>
      <point x="725" y="176"/>
      <point x="623" y="176" type="curve" smooth="yes"/>
      <point x="423" y="176"/>
      <point x="296" y="333"/>
      <point x="337" y="655" type="curve"/>
      <point x="1069" y="655" type="line"/>
      <point x="1075" y="671"/>
      <point x="1078" y="689"/>
      <point x="1079" y="700" type="curve" smooth="yes"/>
      <point x="1125" y="1075"/>
      <point x="913" y="1199"/>
      <point x="678" y="1199" type="curve" smooth="yes"/>
      <point x="425" y="1199"/>
      <point x="144" y="1050"/>
      <point x="95" y="652" type="curve" smooth="yes"/>
      <point x="51" y="294"/>
      <point x="275" y="114"/>
    </contour>
    <contour>
      <point x="346" y="713" type="line"/>
      <point x="387" y="1036"/>
      <point x="538" y="1141"/>
      <point x="668" y="1141" type="curve" smooth="yes"/>
      <point x="798" y="1141"/>
      <point x="919" y="1037"/>
      <point x="879" y="713" type="curve"/>
    </contour>
  </outline>
</glyph>
<glyph name="partialdiff" format="1">
  <advance width="1162"/>
  <unicode hex="2202"/>
  <outline>
    <contour>
      <point x="388" y="-24" type="curve" smooth="yes"/>
      <point x="782" y="-24"/>
      <point x="1025" y="409"/>
      <point x="1077" y="832" type="curve" smooth="yes"/>
      <point x="1134" y="1299"/>
      <point x="970" y="1507"/>
      <point x="662" y="1507" type="curve" smooth="yes"/>
      <point x="544" y="1507"/>
      <point x="418" y="1467"/>
      <point x="325" y="1406" type="curve"/>
      <point x="318" y="1241" type="line"/>
      <point x="378" y="1273"/>
      <point x="492" y="1327"/>
      <point x="622" y="1327" type="curve" smooth="yes"/>
      <point x="787" y="1327"/>
      <point x="880" y="1183"/>
      <point x="860" y="954" type="curve"/>
      <point x="860" y="946"/>
      <point x="851" y="874"/>
      <point x="850" y="866" type="curve"/>
      <point x="831" y="931"/>
      <point x="743" y="1002"/>
      <point x="608" y="1002" type="curve" smooth="yes"/>
      <point x="323" y="1002"/>
      <point x="58" y="749"/>
      <point x="19" y="426" type="curve" smooth="yes"/>
      <point x="-13" y="172"/>
      <point x="108" y="-24"/>
    </contour>
    <contour>
      <point x="411" y="159" type="curve" smooth="yes"/>
      <point x="289" y="159"/>
      <point x="227" y="264"/>
      <point x="246" y="422" type="curve" smooth="yes"/>
      <point x="273" y="637"/>
      <point x="428" y="824"/>
      <point x="601" y="824" type="curve" smooth="yes"/>
      <point x="705" y="824"/>
      <point x="781" y="737"/>
      <point x="807" y="648" type="curve"/>
      <point x="717" y="301"/>
      <point x="582" y="159"/>
    </contour>
  </outline>
</glyph>
<glyph name="increment" format="1">
  <advance width="1390"/>
  <unicode hex="2206"/>
  <outline>
    <contour>
      <point x="-28" y="0" type="line"/>
      <point x="1239" y="0" type="line"/>
      <point x="1257" y="154" type="line"/>
      <point x="899" y="1456" type="line"/>
      <point x="678" y="1456" type="line"/>
      <point x="-11" y="147" type="line"/>
    </contour>
    <contour>
      <point x="233" y="183" type="line"/>
      <point x="739" y="1195" type="line"/>
      <point x="997" y="183" type="line"/>
    </contour>
  </outline>
</glyph>
<glyph name="product" format="1">
  <advance width="1568"/>
  <unicode hex="220F"/>
  <outline>
    <contour>
      <point x="143" y="-100" type="line"/>
      <point x="384" y="-100" type="line"/>
      <point x="552" y="1271" type="line"/>
      <point x="1134" y="1271" type="line"/>
      <point x="965" y="-100" type="line"/>
      <point x="1212" y="-100" type="line"/>
      <point x="1381" y="1271" type="line"/>
      <point x="1514" y="1271" type="line"/>
      <point x="1536" y="1456" type="line"/>
      <point x="176" y="1456" type="line"/>
      <point x="153" y="1271" type="line"/>
      <point x="311" y="1271" type="line"/>
    </contour>
  </outline>
</glyph>
<glyph name="minus" format="1">
  <advance width="1417"/>
  <unicode hex="2212"/>
  <outline>
    <contour>
      <point x="180" y="346" type="line"/>
      <point x="1216" y="346" type="line"/>
      <point x="1238" y="528" type="line"/>
      <point x="202" y="528" type="line"/>
    </contour>
  </outline>
</glyph>
<glyph name="radical" format="1">
  <advance width="1314"/>
  <unicode hex="221A"/>
  <outline>
    <contour>
      <point x="501" y="-146" type="line"/>
      <point x="686" y="-146" type="line"/>
      <point x="1353" y="1566" type="line"/>
      <point x="1153" y="1566" type="line"/>
      <point x="617" y="199" type="line"/>
      <point x="456" y="839" type="line"/>
      <point x="101" y="781" type="line"/>
      <point x="119" y="621" type="line"/>
      <point x="119" y="621"/>
      <point x="284" y="650"/>
      <point x="287" y="651" type="curve"/>
    </contour>
  </outline>
</glyph>
<glyph name="infinity" format="1">
  <advance width="1736"/>
  <unicode hex="221E"/>
  <outline>
    <contour>
      <point x="420" y="233" type="curve" smooth="yes"/>
      <point x="582" y="233"/>
      <point x="721" y="334"/>
      <point x="856" y="486" type="curve"/>
      <point x="968" y="313"/>
      <point x="1080" y="233"/>
      <point x="1229" y="233" type="curve" smooth="yes"/>
      <point x="1425" y="233"/>
      <point x="1613" y="384"/>
      <point x="1639" y="603" type="curve" smooth="yes"/>
      <point x="1666" y="814"/>
      <point x="1543" y="966"/>
      <point x="1321" y="966" type="curve" smooth="yes"/>
      <point x="1151" y="966"/>
      <point x="1016" y="865"/>
      <point x="886" y="711" type="curve"/>
      <point x="787" y="869"/>
      <point x="670" y="966"/>
      <point x="505" y="966" type="curve" smooth="yes"/>
      <point x="313" y="966"/>
      <point x="122" y="813"/>
      <point x="99" y="622" type="curve" smooth="yes"/>
      <point x="73" y="412"/>
      <point x="201" y="233"/>
    </contour>
    <contour>
      <point x="450" y="377" type="curve" smooth="yes"/>
      <point x="311" y="377"/>
      <point x="240" y="487"/>
      <point x="254" y="599" type="curve" smooth="yes"/>
      <point x="269" y="721"/>
      <point x="355" y="822"/>
      <point x="495" y="822" type="curve" smooth="yes"/>
      <point x="631" y="822"/>
      <point x="724" y="724"/>
      <point x="798" y="597" type="curve"/>
      <point x="694" y="476"/>
      <point x="576" y="377"/>
    </contour>
    <contour>
      <point x="1248" y="377" type="curve" smooth="yes"/>
      <point x="1128" y="377"/>
      <point x="1047" y="454"/>
      <point x="949" y="599" type="curve"/>
      <point x="1044" y="715"/>
      <point x="1170" y="822"/>
      <point x="1298" y="822" type="curve" smooth="yes"/>
      <point x="1426" y="822"/>
      <point x="1497" y="731"/>
      <point x="1483" y="625" type="curve" smooth="yes"/>
      <point x="1466" y="486"/>
      <point x="1395" y="377"/>
    </contour>
  </outline>
</glyph>
<glyph name="integral" format="1">
  <advance width="792"/>
  <unicode hex="222B"/>
  <outline>
    <contour>
      <point x="84" y="-316" type="curve" smooth="yes"/>
      <point x="315" y="-316"/>
      <point x="419" y="-155"/>
      <point x="446" y="65" type="curve" smooth="yes"/>
      <point x="585" y="1191" type="line" smooth="yes"/>
      <point x="599" y="1309"/>
      <point x="629" y="1371"/>
      <point x="731" y="1371" type="curve" smooth="yes"/>
      <point x="788" y="1371"/>
      <point x="856" y="1351"/>
      <point x="856" y="1351" type="curve"/>
      <point x="878" y="1528" type="line"/>
      <point x="878" y="1528"/>
      <point x="810" y="1552"/>
      <point x="719" y="1552" type="curve" smooth="yes"/>
      <point x="490" y="1552"/>
      <point x="392" y="1389"/>
      <point x="365" y="1170" type="curve" smooth="yes"/>
      <point x="226" y="44" type="line" smooth="yes"/>
      <point x="212" y="-73"/>
      <point x="187" y="-137"/>
      <point x="87" y="-137" type="curve" smooth="yes"/>
      <point x="28" y="-137"/>
      <point x="-53" y="-121"/>
      <point x="-53" y="-121" type="curve"/>
      <point x="-74" y="-292" type="line"/>
      <point x="-74" y="-292"/>
      <point x="-16" y="-316"/>
    </contour>
  </outline>
</glyph>
<glyph name="approxequal" format="1">
  <advance width="1351"/>
  <unicode hex="2248"/>
  <outline>
    <contour>
      <point x="290" y="674" type="line"/>
      <point x="339" y="786"/>
      <point x="385" y="833"/>
      <point x="464" y="833" type="curve" smooth="yes"/>
      <point x="515" y="833"/>
      <point x="579" y="806"/>
      <point x="651" y="773" type="curve" smooth="yes"/>
      <point x="764" y="721"/>
      <point x="850" y="693"/>
      <point x="933" y="693" type="curve" smooth="yes"/>
      <point x="1086" y="693"/>
      <point x="1182" y="776"/>
      <point x="1256" y="980" type="curve"/>
      <point x="1106" y="1034" type="line"/>
      <point x="1059" y="915"/>
      <point x="1019" y="873"/>
      <point x="949" y="873" type="curve" smooth="yes"/>
      <point x="900" y="873"/>
      <point x="829" y="896"/>
      <point x="743" y="937" type="curve" smooth="yes"/>
      <point x="646" y="984"/>
      <point x="562" y="1014"/>
      <point x="478" y="1014" type="curve" smooth="yes"/>
      <point x="331" y="1014"/>
      <point x="218" y="936"/>
      <point x="141" y="732" type="curve"/>
    </contour>
    <contour>
      <point x="230" y="185" type="line"/>
      <point x="279" y="299"/>
      <point x="325" y="345"/>
      <point x="406" y="345" type="curve" smooth="yes"/>
      <point x="455" y="345"/>
      <point x="522" y="318"/>
      <point x="593" y="287" type="curve"/>
      <point x="705" y="236"/>
      <point x="794" y="206"/>
      <point x="874" y="206" type="curve" smooth="yes"/>
      <point x="1028" y="206"/>
      <point x="1123" y="289"/>
      <point x="1197" y="492" type="curve"/>
      <point x="1046" y="547" type="line"/>
      <point x="1000" y="429"/>
      <point x="959" y="386"/>
      <point x="889" y="386" type="curve" smooth="yes"/>
      <point x="840" y="386"/>
      <point x="770" y="416"/>
      <point x="687" y="451" type="curve"/>
      <point x="594" y="492"/>
      <point x="505" y="527"/>
      <point x="419" y="527" type="curve" smooth="yes"/>
      <point x="274" y="527"/>
      <point x="162" y="449"/>
      <point x="82" y="246" type="curve"/>
    </contour>
  </outline>
</glyph>
<glyph name="notequal" format="1">
  <advance width="1377"/>
  <unicode hex="2260"/>
  <outline>
    <contour>
      <point x="433" y="39" type="line"/>
      <point x="599" y="308" type="line"/>
      <point x="1186" y="308" type="line"/>
      <point x="1207" y="476" type="line"/>
      <point x="703" y="476" type="line"/>
      <point x="843" y="689" type="line"/>
      <point x="1233" y="689" type="line"/>
      <point x="1254" y="858" type="line"/>
      <point x="944" y="858" type="line"/>
      <point x="1091" y="1096" type="line"/>
      <point x="915" y="1122" type="line"/>
      <point x="754" y="858" type="line"/>
      <point x="199" y="858" type="line"/>
      <point x="178" y="689" type="line"/>
      <point x="652" y="689" type="line"/>
      <point x="514" y="476" type="line"/>
      <point x="152" y="476" type="line"/>
      <point x="131" y="308" type="line"/>
      <point x="408" y="308" type="line"/>
      <point x="263" y="66" type="line"/>
    </contour>
  </outline>
</glyph>
<glyph name="greaterequal" format="1">
  <advance width="1351"/>
  <unicode hex="2265"/>
  <outline>
    <contour>
      <point x="90" y="243" type="line"/>
      <point x="1156" y="716" type="line"/>
      <point x="1170" y="823" type="line"/>
      <point x="223" y="1294" type="line"/>
      <point x="198" y="1091" type="line"/>
      <point x="872" y="769" type="line"/>
      <point x="115" y="449" type="line"/>
    </contour>
    <contour>
      <point x="52" y="0" type="line"/>
      <point x="1086" y="0" type="line"/>
      <point x="1106" y="163" type="line"/>
      <point x="72" y="163" type="line"/>
    </contour>
  </outline>
</glyph>
<glyph name="lozenge" format="1">
  <advance width="1248"/>
  <unicode hex="25CA"/>
  <outline>
    <contour>
      <point x="434" y="-40" type="line"/>
      <point x="580" y="-40" type="line"/>
      <point x="1124" y="704" type="line"/>
      <point x="770" y="1448" type="line"/>
      <point x="623" y="1448" type="line"/>
      <point x="83" y="703" type="line"/>
    </contour>
    <contour>
      <point x="536" y="190" type="line"/>
      <point x="300" y="703" type="line"/>
      <point x="668" y="1204" type="line"/>
      <point x="906" y="703" type="line"/>
    </contour>
  </outline>
</glyph>
<glyph name="fi" format="1">
  <advance width="1260"/>
  <unicode hex="FB01"/>
  <outline>
    <contour>
      <point x="165" y="0" type="line"/>
      <point x="382" y="0" type="line"/>
      <point x="490" y="881" type="line"/>
      <point x="937" y="881" type="line"/>
      <point x="955" y="1026" type="line"/>
      <point x="508" y="1026" type="line"/>
      <point x="516" y="1095" type="line" smooth="yes"/>
      <point x="539" y="1281"/>
      <point x="562" y="1315"/>
      <point x="785" y="1315" type="curve"/>
      <point x="811" y="1483" type="line"/>
      <point x="761" y="1483" type="line" smooth="yes"/>
      <point x="385" y="1483"/>
      <point x="332" y="1361"/>
      <point x="298" y="1084" type="curve" smooth="yes"/>
      <point x="291" y="1026" type="line"/>
      <point x="105" y="1026" type="line"/>
      <point x="87" y="881" type="line"/>
      <point x="273" y="881" type="line"/>
    </contour>
    <component base="i" xOffset="734"/>
  </outline>
</glyph>
<glyph name="fl" format="1">
  <advance width="1270"/>
  <unicode hex="FB02"/>
  <outline>
    <contour>
      <point x="172" y="0" type="line"/>
      <point x="388" y="0" type="line"/>
      <point x="497" y="881" type="line"/>
      <point x="735" y="881" type="line"/>
      <point x="752" y="1026" type="line"/>
      <point x="514" y="1026" type="line"/>
      <point x="524" y="1111" type="line" smooth="yes"/>
      <point x="542" y="1251"/>
      <point x="589" y="1296"/>
      <point x="802" y="1296" type="curve" smooth="yes"/>
      <point x="971" y="1296" type="line"/>
      <point x="812" y="0" type="line"/>
      <point x="1028" y="0" type="line"/>
      <point x="1208" y="1464" type="line"/>
      <point x="791" y="1464" type="line" smooth="yes"/>
      <point x="432" y="1464"/>
      <point x="337" y="1346"/>
      <point x="303" y="1069" type="curve" smooth="yes"/>
      <point x="298" y="1026" type="line"/>
      <point x="106" y="1026" type="line"/>
      <point x="88" y="881" type="line"/>
      <point x="280" y="881" type="line"/>
    </contour>
  </outline>
</glyph>
<glyph name="f_f_i" format="1">
  <advance width="2023"/>
  <outline>
    <contour>
      <point x="1778" y="0" type="line"/>
      <point x="1904" y="1026" type="line"/>
      <point x="1241" y="1026" type="line"/>
      <point x="1249" y="1094" type="line" smooth="yes"/>
      <point x="1272" y="1280"/>
      <point x="1294" y="1314"/>
      <point x="1517" y="1314" type="curve"/>
      <point x="1544" y="1483" type="line"/>
      <point x="1494" y="1483" type="line" smooth="yes"/>
      <point x="1118" y="1483"/>
      <point x="1065" y="1361"/>
      <point x="1032" y="1084" type="curve" smooth="yes"/>
      <point x="1024" y="1026" type="line"/>
      <point x="508" y="1026" type="line"/>
      <point x="516" y="1094" type="line" smooth="yes"/>
      <point x="539" y="1280"/>
      <point x="562" y="1314"/>
      <point x="785" y="1314" type="curve"/>
      <point x="811" y="1483" type="line"/>
      <point x="761" y="1483" type="line" smooth="yes"/>
      <point x="385" y="1483"/>
      <point x="332" y="1361"/>
      <point x="298" y="1084" type="curve" smooth="yes"/>
      <point x="291" y="1026" type="line"/>
      <point x="105" y="1026" type="line"/>
      <point x="87" y="881" type="line"/>
      <point x="273" y="881" type="line"/>
      <point x="165" y="0" type="line"/>
      <point x="382" y="0" type="line"/>
      <point x="490" y="881" type="line"/>
      <point x="1006" y="881" type="line"/>
      <point x="898" y="0" type="line"/>
      <point x="1115" y="0" type="line"/>
      <point x="1223" y="881" type="line"/>
      <point x="1673" y="881" type="line"/>
      <point x="1565" y="0" type="line"/>
    </contour>
    <contour>
      <point x="1932" y="1261" type="line"/>
      <point x="1957" y="1456" type="line"/>
      <point x="1744" y="1456" type="line"/>
      <point x="1720" y="1261" type="line"/>
    </contour>
  </outline>
</glyph>
<glyph name="f_f_l" format="1">
  <advance width="2055"/>
  <outline>
    <contour>
      <point x="466" y="1456" type="move" name="top"/>
    </contour>
    <contour>
      <point x="166" y="0" type="line"/>
      <point x="389" y="0" type="line"/>
      <point x="497" y="881" type="line"/>
      <point x="807" y="881" type="line"/>
      <point x="825" y="1026" type="line"/>
      <point x="515" y="1026" type="line"/>
      <point x="523" y="1089" type="line" smooth="yes"/>
      <point x="546" y="1278"/>
      <point x="569" y="1310"/>
      <point x="789" y="1310" type="curve"/>
      <point x="817" y="1483" type="line"/>
      <point x="766" y="1483" type="line" smooth="yes"/>
      <point x="385" y="1483"/>
      <point x="333" y="1360"/>
      <point x="299" y="1080" type="curve" smooth="yes"/>
      <point x="292" y="1026" type="line"/>
      <point x="105" y="1026" type="line"/>
      <point x="87" y="881" type="line"/>
      <point x="274" y="881" type="line"/>
    </contour>
    <component base="fl" xOffset="645"/>
  </outline>
</glyph>
